<?xml version="1.0" standalone="no"?>
<!DOCTYPE svg PUBLIC "-//W3C//DTD SVG 20010904//EN"
 "http://www.w3.org/TR/2001/REC-SVG-20010904/DTD/svg10.dtd">
<svg version="1.0" xmlns="http://www.w3.org/2000/svg"
 width="1024.000000pt" height="1024.000000pt" viewBox="0 0 1024.000000 1024.000000"
 preserveAspectRatio="xMidYMid meet">

<g transform="translate(0.000000,1024.000000) scale(0.100000,-0.100000)"
fill="#000000" stroke="none">
<path d="M0 5120 l0 -5120 5120 0 5120 0 0 5120 0 5120 -5120 0 -5120 0 0
-5120z m5754 2727 c183 -45 312 -114 434 -231 106 -101 172 -210 219 -363 25
-83 27 -99 27 -293 0 -189 -2 -213 -26 -301 -28 -103 -70 -196 -124 -272 -19
-26 -34 -50 -34 -53 0 -3 24 -32 53 -64 62 -69 133 -186 180 -296 161 -377
109 -848 -126 -1151 -59 -76 -121 -135 -137 -131 -8 2 -14 -3 -15 -9 0 -7 -3
-12 -7 -10 -4 1 -13 -7 -21 -17 -9 -12 -20 -17 -30 -13 -12 4 -14 2 -10 -10 5
-13 1 -15 -20 -11 -24 5 -26 3 -15 -11 7 -9 9 -13 4 -9 -4 4 -37 -9 -72 -29
-40 -21 -71 -32 -81 -28 -10 3 -14 3 -10 -1 4 -4 -7 -14 -25 -21 -48 -20 -218
-55 -239 -50 -11 3 -19 2 -19 -3 0 -4 -19 -8 -42 -8 -24 0 -79 -2 -122 -3 -54
-2 -81 1 -84 9 -2 7 -8 12 -13 12 -6 0 -8 -4 -5 -9 3 -5 0 -11 -7 -13 -11 -4
-222 -1 -360 5 -31 1 -57 -1 -57 -4 0 -3 -12 -5 -27 -3 -16 2 -153 4 -305 4
-210 1 -278 4 -279 13 0 9 -2 9 -6 0 -6 -17 -134 -17 -152 0 -10 9 -12 9 -7 0
5 -10 -62 -12 -299 -12 -259 0 -305 2 -305 14 0 9 6 12 18 8 14 -5 14 -4 -2 9
-13 10 -17 22 -13 36 3 12 2 24 -1 26 -4 2 -5 27 -4 55 4 46 6 50 23 40 11 -5
19 -6 19 -1 0 6 -9 12 -20 15 -17 4 -20 13 -19 49 1 23 0 48 -1 53 -6 25 1 37
18 31 15 -5 15 -5 1 7 -20 16 -33 53 -20 61 5 4 12 2 16 -4 3 -5 11 -10 18
-10 6 0 1 7 -11 16 -16 11 -22 25 -22 55 0 24 5 39 13 39 9 0 9 2 0 8 -16 10
-21 48 -5 44 9 -1 8 5 -4 23 -9 14 -12 25 -8 25 5 0 8 33 6 72 -4 105 -4 172
-2 183 1 6 1 12 0 15 -6 16 -4 220 3 220 5 0 5 6 0 13 -11 16 -11 57 0 57 4 0
5 5 1 12 -4 7 -9 506 -10 1110 -2 864 -5 1102 -15 1114 -11 13 103 14 1052 11
958 -3 1071 -5 1133 -20z m-409 -4097 c83 -26 87 -29 90 -72 1 -18 5 -70 10
-115 4 -46 3 -83 -1 -83 -15 1 -46 49 -39 60 4 6 3 10 -2 9 -20 -4 -27 2 -13
12 13 9 13 10 -1 6 -10 -3 -28 7 -46 27 -17 17 -57 45 -89 61 -53 27 -68 30
-154 30 -99 -1 -147 -16 -178 -57 -7 -10 -19 -15 -29 -11 -11 4 -14 3 -9 -6 4
-6 -3 -24 -18 -41 -13 -17 -35 -48 -47 -70 -13 -22 -27 -40 -31 -40 -5 0 -7
-4 -4 -9 3 -5 -1 -31 -9 -57 -37 -122 -24 -289 30 -401 37 -75 106 -147 173
-180 50 -24 69 -28 147 -28 84 0 96 3 158 34 37 19 67 39 67 44 0 6 8 3 18 -6
10 -10 22 -17 27 -17 5 0 -1 9 -13 21 -22 20 -22 39 1 39 8 0 8 -3 -2 -9 -9
-6 -10 -11 -2 -15 10 -7 12 -3 15 34 1 9 10 14 24 13 28 -3 28 5 0 17 l-23 9
24 0 c19 1 21 4 12 15 -14 16 -4 46 15 46 11 0 14 -16 14 -64 0 -88 -11 -186
-21 -186 -5 0 -9 9 -9 20 0 14 -5 18 -17 13 -11 -4 -12 -8 -5 -11 7 -2 12 -8
12 -13 0 -6 -4 -7 -10 -4 -5 3 -10 1 -10 -4 0 -6 -7 -11 -15 -11 -8 0 -15 -4
-15 -10 0 -5 -3 -9 -7 -8 -5 1 -21 -2 -36 -7 -30 -8 -59 7 -38 19 6 4 11 3 11
-2 0 -6 9 -8 21 -5 20 5 20 6 -3 18 -13 6 -22 18 -20 26 3 11 1 11 -9 2 -6 -6
-18 -9 -25 -6 -8 3 -14 0 -14 -6 0 -6 7 -11 15 -11 8 0 15 -4 15 -10 0 -13 -6
-13 -30 2 -25 16 -41 1 -29 -27 9 -18 9 -18 5 3 -5 27 1 27 32 4 l24 -18 -64
-11 c-69 -12 -180 -14 -173 -2 3 4 -4 9 -14 12 -13 3 -18 1 -14 -8 6 -17 -88
3 -161 34 -65 28 -138 82 -132 97 3 8 -1 11 -9 8 -8 -4 -26 14 -47 48 -53 83
-53 82 -37 74 8 -4 5 0 -5 8 -20 16 -20 16 0 17 14 1 15 2 3 6 -26 7 -69 113
-46 113 8 0 7 3 -2 9 -7 5 -11 15 -9 22 3 8 1 25 -4 38 -8 21 -6 23 18 18 l26
-5 -26 23 c-29 25 -34 40 -10 31 15 -6 15 -4 2 16 -20 31 -12 48 20 48 22 0
24 -2 12 -10 -11 -8 -8 -9 13 -4 17 4 27 2 27 -5 0 -6 -5 -11 -11 -11 -5 0 -7
-5 -4 -11 5 -6 12 -4 20 8 18 24 12 30 -35 38 -25 4 -40 12 -40 21 0 9 5 12
12 8 7 -5 8 -3 3 6 -4 7 -2 16 6 21 11 7 11 9 1 9 -8 0 -10 5 -5 13 4 6 8 14
9 17 5 30 18 60 24 60 8 0 21 33 25 63 1 10 10 26 20 35 11 11 15 12 10 3 -6
-10 -4 -12 4 -7 6 4 9 12 6 17 -10 15 85 96 160 136 101 53 150 63 295 59 93
-3 143 -9 195 -26z m989 14 c137 -35 265 -136 324 -256 83 -169 80 -408 -6
-560 -24 -43 -34 -53 -55 -52 -14 0 -23 -4 -20 -9 3 -4 11 -6 19 -3 21 8 17
-8 -7 -30 -17 -16 -22 -16 -30 -4 -7 11 -8 9 -7 -10 3 -23 0 -25 -32 -23 -28
2 -31 1 -15 -6 19 -9 19 -10 1 -10 -10 -1 -34 8 -52 20 -33 20 -54 19 -54 -4
0 -8 3 -8 9 2 7 11 13 11 32 0 23 -12 23 -12 4 -21 -16 -7 -15 -7 7 -3 25 5
25 4 15 -19 -8 -16 -14 -21 -19 -13 -6 9 -8 8 -8 -2 0 -11 -3 -11 -15 -1 -13
11 -14 10 -9 -4 4 -10 1 -16 -7 -16 -8 0 -27 -7 -44 -16 -16 -9 -49 -16 -72
-17 -24 -1 -43 -6 -43 -10 0 -4 -38 -7 -84 -6 -61 1 -103 9 -158 28 -89 31
-151 68 -144 87 3 8 -2 11 -14 9 -10 -2 -28 7 -41 21 -12 13 -19 24 -15 24 3
0 -9 16 -29 35 -33 33 -50 75 -23 59 7 -4 8 -3 4 5 -4 6 -11 9 -15 7 -4 -3
-13 4 -20 16 -10 16 -10 19 1 13 7 -3 4 1 -6 9 -20 16 -20 16 0 17 16 1 16 2
2 6 -11 3 -15 10 -11 20 4 11 2 14 -5 9 -7 -4 -13 -4 -13 1 -1 4 -3 17 -4 28
-2 11 -5 32 -8 47 -4 19 0 34 11 45 16 16 16 16 0 10 -13 -5 -18 -1 -18 13 0
16 4 18 24 10 17 -6 26 -5 29 3 3 8 -5 12 -22 12 -20 0 -27 6 -29 24 -2 13 0
21 6 17 6 -4 8 9 5 36 -4 25 -2 39 4 35 5 -4 8 6 5 24 -5 33 3 36 38 13 l25
-16 -25 24 c-30 27 -31 40 -8 68 10 11 15 20 12 20 -4 0 1 11 10 25 19 29 20
39 4 29 -7 -4 -8 -3 -4 5 5 8 13 7 29 -4 12 -8 26 -15 32 -15 5 1 -1 7 -15 15
-14 8 -20 15 -15 15 6 0 3 5 -5 10 -13 8 -12 10 4 10 11 0 16 3 13 6 -11 11
14 46 28 40 9 -3 12 0 9 9 -11 27 143 125 236 151 65 18 211 17 284 -2z
m-4141 -33 c135 -53 201 -171 165 -291 -12 -37 -18 -44 -36 -42 -12 2 -22 -2
-22 -7 0 -6 8 -11 17 -11 23 0 1 -23 -27 -27 -14 -2 -20 3 -20 17 0 12 -7 20
-17 20 -11 0 -14 -3 -7 -8 6 -4 14 -17 18 -30 6 -16 3 -23 -11 -28 -10 -3 -30
-11 -45 -19 -18 -9 -30 -10 -34 -4 -3 6 -11 8 -17 6 -7 -2 -20 2 -29 11 -10 8
-18 10 -18 5 0 -10 24 -25 42 -27 19 -3 18 -16 -2 -16 -12 0 -31 10 -41 22
-18 20 -19 20 -19 2 0 -22 36 -40 98 -47 47 -6 114 -37 150 -70 80 -74 92
-227 27 -329 -20 -29 -29 -35 -47 -30 -21 5 -22 4 -8 -14 14 -18 13 -18 -10 1
-14 11 -33 28 -43 38 -18 17 -17 18 25 16 24 -2 51 1 59 6 8 5 7 0 -4 -12 -14
-16 -15 -23 -6 -29 8 -4 10 -3 5 4 -4 7 -3 12 2 12 12 0 36 36 46 68 6 16 3
22 -8 22 -9 0 -16 5 -16 10 0 6 -4 10 -8 10 -4 0 -8 -8 -8 -19 0 -11 5 -17 13
-14 22 9 14 -16 -9 -31 -32 -19 -128 -27 -128 -10 0 18 17 27 33 17 20 -12 44
-13 69 -3 20 9 18 9 -9 4 -39 -7 -46 12 -8 22 14 4 24 8 21 11 -2 2 -20 0 -40
-5 -26 -8 -36 -7 -36 1 0 7 -5 6 -11 -3 -9 -13 -10 -13 -6 0 3 9 15 14 32 13
26 -2 26 -1 9 12 -11 7 -15 17 -11 21 4 5 12 3 16 -4 10 -16 51 -24 51 -10 0
5 -7 8 -15 4 -8 -3 -18 0 -22 7 -5 7 -20 18 -35 26 -31 16 -35 32 -13 51 13
10 19 9 35 -5 20 -18 21 -18 38 -1 14 14 14 17 2 14 -8 -2 -18 -7 -21 -12 -4
-5 -12 1 -18 13 -14 25 -24 26 -43 7 -12 -12 -16 -10 -25 14 -9 24 -8 27 11
25 12 -1 21 -4 21 -5 0 -1 10 -4 23 -5 12 -1 22 2 22 7 0 5 -6 8 -12 5 -20 -6
-80 22 -113 53 -16 15 -43 31 -60 34 -16 4 -50 11 -75 17 -41 8 -194 3 -213
-8 -4 -2 -6 1 -5 8 2 6 -4 14 -12 16 -13 4 -13 3 0 -6 27 -19 -25 -13 -59 7
-20 11 -29 23 -26 33 3 9 0 16 -9 16 -24 0 -3 -51 25 -58 13 -4 18 -7 10 -8
-32 -2 2 -14 46 -16 27 -2 51 -3 56 -4 4 0 7 -83 7 -183 0 -101 5 -190 10
-198 14 -23 174 -27 225 -6 31 13 40 14 47 4 6 -10 8 -9 8 3 0 8 12 26 27 40
14 13 23 19 19 12 -3 -6 -2 -14 3 -17 5 -4 12 2 14 11 4 15 6 15 12 -4 4 -13
11 -20 16 -17 11 7 51 -21 42 -29 -3 -4 -11 -3 -17 2 -16 12 -57 21 -50 10 3
-5 13 -9 23 -9 10 0 25 -8 32 -17 12 -15 12 -16 -3 -10 -10 3 -18 3 -18 -2 0
-5 -10 -12 -22 -15 -97 -29 -132 -36 -141 -27 -5 5 -18 6 -29 3 -11 -2 -15 -8
-10 -11 14 -9 -109 -5 -130 4 -10 4 -18 15 -18 24 1 13 4 12 19 -6 18 -22 38
-32 27 -15 -2 4 15 7 40 7 24 -1 44 2 44 6 0 10 -28 19 -32 10 -2 -5 -29 -2
-62 6 -37 10 -61 12 -65 5 -7 -11 -46 1 -57 19 -4 7 -2 15 4 17 23 7 11 22
-13 16 -19 -5 -25 -2 -25 10 0 19 20 22 21 4 0 -10 2 -10 6 -1 3 9 10 10 24 3
11 -6 19 -7 19 -1 0 12 -29 22 -43 14 -7 -3 -8 -2 -4 3 5 5 -8 16 -29 25 -35
14 -36 16 -16 21 14 4 20 2 15 -4 -4 -7 -1 -8 7 -3 7 4 26 8 42 7 15 0 26 4
23 9 -4 5 -11 9 -16 9 -6 0 -17 7 -25 15 -9 8 -20 15 -25 15 -5 0 -9 -7 -9
-15 0 -8 -8 -15 -17 -15 -15 0 -16 2 -3 10 13 8 12 10 -4 10 -23 0 -16 10 10
14 10 2 20 8 22 15 3 10 0 10 -17 2 -15 -9 -27 -9 -41 -1 -14 7 -20 7 -20 0 0
-5 5 -10 10 -10 6 0 10 -5 10 -11 0 -5 -6 -7 -12 -4 -7 4 -5 0 5 -8 9 -8 17
-22 17 -31 0 -9 13 -23 30 -30 20 -8 27 -15 20 -22 -12 -12 -2 -76 11 -69 4 3
11 -1 16 -8 4 -8 23 -17 41 -20 37 -8 76 -37 48 -37 -9 0 -16 5 -16 10 0 6 -8
10 -17 10 -15 0 -16 -2 -3 -10 12 -8 9 -10 -11 -10 -15 0 -29 7 -33 16 -3 8
-10 12 -16 9 -6 -3 -7 1 -4 9 4 12 0 16 -16 16 -18 0 -21 4 -17 21 4 15 2 19
-9 15 -8 -3 -14 -1 -14 4 0 6 5 10 10 10 6 0 10 7 10 15 0 18 -37 38 -56 31
-8 -3 -14 1 -14 9 0 9 6 12 15 9 8 -4 15 -1 15 5 0 6 -7 11 -15 11 -8 0 -15 4
-15 10 0 5 8 7 18 4 15 -5 15 -4 1 8 -9 7 -18 28 -21 46 -4 27 -2 32 11 26 28
-12 71 -17 71 -7 0 5 9 9 19 9 15 0 17 -3 9 -14 -8 -9 -8 -16 2 -25 10 -9 11
-9 6 1 -4 6 -2 12 3 12 6 0 11 9 11 21 0 12 -5 19 -12 16 -7 -2 -21 0 -32 5
-12 7 -16 7 -12 0 3 -5 -3 -12 -14 -15 -21 -5 -39 8 -19 15 17 6 -1 38 -21 38
-24 0 -34 16 -15 24 8 3 15 0 15 -7 0 -8 4 -7 10 3 10 16 25 7 25 -17 0 -9 9
-17 20 -18 50 -5 75 -22 68 -45 -3 -9 0 -8 7 3 9 14 9 22 0 33 -9 9 -9 14 -2
14 6 0 9 7 6 15 -4 8 -14 15 -23 14 -10 0 -11 -2 -3 -6 17 -7 15 -20 -2 -20
-8 0 -14 5 -13 11 1 6 -10 12 -25 14 -16 2 -28 8 -28 14 0 6 -9 8 -20 5 -24
-6 -36 8 -42 51 -4 26 -2 32 10 27 8 -3 20 -1 27 5 9 8 15 8 20 0 3 -5 1 -10
-4 -10 -22 0 -10 -15 13 -16 l24 -2 -26 29 c-14 16 -30 29 -36 29 -6 0 -5 -4
3 -9 9 -6 10 -11 2 -15 -6 -4 -15 -5 -20 -2 -10 7 -21 56 -12 56 9 0 5 66 -5
81 -5 9 -2 10 9 6 16 -6 16 -4 2 22 -14 27 -13 30 8 45 12 8 15 13 6 10 -10
-3 -16 1 -16 10 0 17 24 29 32 17 6 -11 45 -2 45 9 0 5 -16 7 -35 6 -38 -3
-45 6 -43 61 1 18 7 34 15 37 8 3 13 0 11 -7 -2 -7 15 -28 37 -47 22 -19 34
-28 28 -20 -7 8 -13 18 -13 23 0 4 6 5 13 1 8 -5 9 -4 2 4 -5 5 -19 12 -30 14
-11 2 -21 11 -23 21 -5 22 15 22 21 0 3 -12 5 -10 6 7 1 20 3 22 11 10 5 -8
10 -10 10 -4 0 6 -9 19 -20 29 -11 10 -18 21 -15 25 2 4 -2 7 -10 7 -13 0 -13
-3 0 -17 20 -22 19 -36 0 -20 -13 11 -14 10 -8 -6 6 -17 5 -18 -12 -4 -15 12
-17 12 -10 1 5 -10 4 -12 -3 -7 -7 4 -12 23 -12 42 0 27 4 34 20 34 22 0 28
34 9 46 -8 4 -9 0 -4 -15 8 -28 -20 -29 -35 -2 -16 30 -13 46 5 31 8 -7 15 -8
15 -3 0 5 -11 15 -25 21 -14 6 -25 16 -25 22 0 5 -6 10 -13 10 -7 0 -22 7 -33
15 -17 14 10 15 261 12 266 -2 283 -4 338 -26z m902 19 c142 -18 254 -93 288
-195 36 -104 15 -228 -48 -285 -16 -14 -25 -20 -22 -14 4 7 -1 18 -10 25 -14
12 -16 12 -11 -2 4 -9 1 -22 -5 -28 -18 -18 -48 -13 -54 9 -6 21 -37 27 -48
10 -3 -5 2 -10 12 -10 19 0 43 -18 43 -32 0 -4 -9 -8 -20 -8 -11 0 -20 -4 -20
-10 0 -14 -37 -13 -46 2 -5 8 -2 9 9 5 10 -3 17 -3 17 2 0 4 -21 7 -46 7 l-45
-1 31 -13 c23 -9 50 -42 107 -130 41 -64 98 -152 125 -194 48 -74 126 -158
148 -158 5 0 10 -7 10 -16 0 -8 -4 -13 -9 -9 -5 3 -52 7 -103 9 -74 3 -101 8
-131 26 -27 16 -35 25 -26 31 9 5 5 10 -14 14 -15 4 -24 11 -21 16 3 5 -1 9
-10 9 -9 0 -13 8 -11 25 1 17 -3 25 -12 25 -10 0 -13 6 -9 16 5 12 2 15 -9 10
-9 -3 -13 -2 -10 3 3 6 -3 14 -12 20 -17 10 -17 10 2 11 27 0 40 -10 58 -46
19 -36 34 -44 62 -33 17 6 17 8 3 8 -10 1 -18 6 -18 11 0 15 6 12 40 -19 22
-20 28 -30 18 -33 -7 -3 -19 2 -26 11 -12 14 -13 14 -8 -3 5 -14 2 -17 -11
-12 -16 6 -16 6 -1 -11 9 -10 16 -22 15 -28 -1 -5 13 -11 31 -13 18 -2 30 -7
28 -11 -3 -3 3 -7 12 -8 9 -1 42 -5 74 -8 l56 -7 -46 49 c-26 26 -50 47 -54
46 -4 -2 -5 4 -2 12 4 10 0 15 -11 15 -9 0 -14 3 -11 8 6 11 -22 47 -31 38 -4
-4 0 -12 9 -17 10 -5 15 -16 12 -24 -4 -8 -1 -15 6 -15 7 0 6 -5 -4 -15 -21
-21 -25 -19 -21 14 2 18 -2 34 -11 41 -17 15 -19 -1 -2 -18 9 -9 9 -12 1 -12
-7 0 -15 9 -18 20 -3 11 -13 20 -21 20 -8 0 -12 5 -8 11 3 6 17 8 29 5 27 -7
41 7 22 21 -19 15 -49 24 -42 13 3 -6 13 -10 21 -10 8 0 14 -4 14 -10 0 -6
-10 -5 -25 2 -15 6 -25 20 -25 31 0 11 -3 17 -7 13 -11 -11 -10 -30 1 -38 15
-10 0 -21 -16 -12 -7 5 -19 9 -27 9 -8 0 -16 6 -19 14 -4 11 2 12 23 7 28 -7
28 -7 12 18 -16 24 -16 25 11 23 15 -1 35 -11 45 -21 23 -25 22 -15 -4 28 -12
20 -25 33 -30 30 -5 -3 -9 0 -9 5 0 6 -4 11 -9 11 -5 0 -7 -9 -4 -19 3 -14 -2
-21 -18 -26 -22 -7 -22 -8 -3 -23 17 -13 17 -14 1 -9 -11 4 -20 1 -23 -8 -8
-21 -37 -19 -57 5 -11 13 -13 20 -4 20 8 0 7 3 -3 9 -8 6 -17 8 -21 5 -8 -5
-22 46 -15 54 3 2 12 -1 21 -8 9 -7 17 -11 19 -9 2 2 -10 14 -25 27 -23 18
-27 20 -22 6 4 -12 2 -15 -8 -12 -8 3 -13 11 -12 17 3 11 -19 42 -45 65 -7 6
-18 16 -24 21 -6 6 -27 9 -46 7 -24 -3 -33 -1 -28 7 4 6 2 11 -3 11 -6 0 -11
-4 -11 -10 0 -5 -7 -7 -16 -3 -13 5 -13 7 -2 14 9 6 9 9 1 9 -16 0 -28 -21
-15 -29 6 -3 12 -75 14 -178 3 -155 6 -176 24 -200 12 -15 31 -30 43 -33 12
-3 21 -9 19 -15 -4 -12 -26 -8 -55 11 -20 13 -23 13 -23 -1 0 -8 -7 -15 -15
-15 -8 0 -15 4 -15 9 0 5 -10 11 -22 14 -21 5 -21 5 -6 -7 14 -11 6 -13 -51
-13 -63 0 -68 2 -67 21 1 14 9 22 26 25 23 3 24 4 5 12 -19 7 -19 8 1 8 15 1
25 -8 34 -29 7 -16 16 -30 21 -30 13 0 11 12 -6 34 -8 11 -15 30 -15 42 0 13
-5 26 -12 30 -8 5 -9 0 -5 -15 4 -18 2 -21 -11 -15 -9 3 -25 6 -35 6 -9 0 -15
3 -12 9 4 5 16 9 28 10 15 0 17 2 7 6 -22 9 -41 31 -32 37 5 3 7 20 6 39 -3
33 -2 34 21 23 20 -9 22 -13 12 -21 -14 -11 -12 -35 4 -35 4 0 6 6 3 14 -6 15
23 32 61 35 23 2 18 20 -15 53 -18 17 -37 28 -47 25 -14 -4 -12 -5 5 -6 28 -1
29 -17 1 -24 -12 -3 -18 -10 -14 -16 9 -16 35 -13 35 4 0 12 3 12 20 -2 21
-18 11 -33 -19 -28 -9 2 -23 4 -31 4 -22 2 -44 52 -27 63 9 6 9 8 0 8 -7 0
-13 4 -13 9 0 9 65 5 81 -5 5 -3 9 -1 9 5 0 6 7 7 17 4 11 -5 14 -3 8 6 -4 8
4 6 19 -4 29 -19 35 -12 10 12 -12 13 -20 13 -40 4 -20 -9 -26 -8 -30 4 -4 8
-16 14 -28 14 -16 -1 -17 -2 -3 -6 9 -2 17 -9 17 -14 0 -12 -17 -12 -25 1 -3
5 -12 7 -20 3 -8 -3 -15 -1 -15 4 0 6 15 15 33 21 17 5 25 10 15 11 -11 1 -15
7 -11 21 3 11 0 20 -6 20 -5 0 -8 -6 -5 -13 3 -8 -1 -19 -9 -25 -11 -9 -13 0
-14 52 -1 57 1 63 18 59 11 -3 19 -1 19 5 0 6 10 13 23 15 15 3 13 4 -5 2 -16
-1 -28 2 -28 7 0 4 -6 8 -13 8 -8 0 -13 13 -14 35 -1 24 3 33 10 29 8 -4 7 -2
0 7 -18 19 -16 34 2 19 23 -19 30 -5 8 17 -13 13 -20 36 -21 69 -1 27 1 44 5
38 9 -13 65 -25 57 -13 -3 5 -12 9 -20 9 -23 0 -39 21 -42 53 -2 32 17 36 43
7 22 -25 9 -26 -19 -2 -20 16 -20 16 -7 0 11 -15 11 -18 0 -18 -10 -1 -8 -4 3
-11 12 -7 24 -7 37 0 10 6 21 8 24 5 3 -3 8 0 13 7 4 7 3 10 -4 5 -6 -3 -23 5
-39 20 -19 17 -22 24 -10 20 11 -3 16 -2 12 4 -3 6 -17 7 -31 4 -23 -6 -24 -4
-24 49 0 31 -5 68 -11 84 -13 34 -55 73 -81 73 -10 0 -18 5 -18 10 0 13 408
12 505 0z m805 0 c0 -5 -7 -11 -15 -11 -8 -1 -21 -2 -27 -3 -7 0 -14 -7 -14
-13 -1 -7 -3 -16 -4 -20 -6 -19 4 -61 21 -96 15 -28 220 -357 234 -375 1 -2 5
4 9 13 3 9 2 13 -4 10 -17 -10 -11 9 11 35 11 14 18 20 16 15 -3 -6 3 -11 14
-11 24 0 24 5 2 22 -17 13 -17 14 2 8 15 -5 17 -4 9 5 -12 13 3 61 19 61 5 0
5 -5 1 -12 -4 -7 -3 -8 4 -4 6 4 9 13 5 21 -5 14 8 19 44 18 7 -1 10 3 7 9 -3
5 -15 6 -26 2 -18 -5 -19 -4 -8 16 8 16 18 20 33 16 19 -4 20 -4 6 7 -14 10
-15 16 -4 30 6 9 15 13 19 9 5 -4 6 2 4 13 -2 13 2 19 11 17 8 -2 11 3 8 11
-3 8 3 24 13 35 10 11 16 23 13 26 -4 3 -2 6 4 6 6 0 9 9 5 22 -4 17 -2 20 11
15 10 -4 17 -2 17 3 0 6 -7 10 -15 10 -8 0 -14 3 -13 8 1 4 -3 22 -9 40 -9 23
-18 32 -35 32 -13 0 -30 5 -38 10 -10 6 43 10 158 10 128 0 173 -3 170 -12 -4
-11 -25 -18 -65 -20 -14 0 -20 -5 -16 -14 6 -17 -8 -18 -27 -1 -12 10 -12 9 0
-6 11 -15 10 -21 -12 -45 -14 -15 -33 -39 -43 -54 -9 -15 -22 -25 -28 -21 -6
3 -7 1 -3 -5 4 -6 -3 -30 -14 -52 -19 -36 -23 -39 -43 -30 -21 10 -21 10 -3
-4 18 -14 18 -16 -4 -51 -12 -20 -26 -32 -33 -28 -6 4 -8 0 -4 -10 6 -17 -22
-77 -36 -77 -5 0 -5 5 -2 10 3 6 2 10 -4 10 -5 0 -13 -5 -16 -10 -4 -6 -11 -7
-17 -4 -6 4 -5 10 3 15 10 6 10 9 2 9 -6 0 -14 -4 -17 -8 -7 -12 11 -35 22
-28 30 18 18 -25 -27 -98 l-51 -83 0 -157 c0 -182 9 -216 64 -243 40 -19 49
-38 12 -23 -13 5 -26 7 -29 4 -2 -3 -35 -4 -73 -4 -38 1 -77 1 -88 1 -16 0
-46 20 -46 32 0 2 18 1 40 -3 25 -5 40 -4 40 3 0 5 7 4 15 -3 13 -11 14 -10
10 1 -4 11 -20 14 -58 12 -72 -4 -87 -7 -97 -23 -10 -16 -80 -24 -80 -10 0 6
7 10 16 10 9 0 32 9 50 21 20 12 34 16 34 9 0 -7 6 -5 16 4 18 18 34 21 34 6
0 -5 5 -10 10 -10 20 0 10 19 -17 32 -38 19 -38 33 -1 36 17 2 38 8 46 14 12
10 11 14 -4 25 -16 12 -16 13 9 13 21 0 25 -4 20 -17 -5 -16 -4 -15 9 1 17 21
38 14 38 -12 0 -14 2 -15 9 -3 7 10 4 19 -7 28 -16 12 -15 12 2 6 14 -5 17 -3
12 6 -5 7 -16 11 -26 8 -9 -2 -25 0 -35 6 -13 7 -16 6 -11 -2 4 -6 1 -11 -8
-11 -8 0 -13 6 -10 13 2 7 -14 32 -36 56 -38 41 -54 91 -29 91 8 0 8 4 1 13
-5 6 -12 30 -14 52 -6 55 -10 64 -36 93 -15 17 -19 28 -11 32 6 4 2 10 -12 13
-13 4 -20 9 -16 13 4 4 -3 18 -15 31 -19 20 -20 25 -8 33 12 8 10 10 -7 10
-14 0 -23 6 -23 15 0 9 -7 18 -15 21 -8 4 -15 13 -15 21 0 8 -9 27 -21 41
l-20 26 21 8 c14 5 26 2 40 -12 11 -11 26 -20 33 -20 6 0 3 6 -8 12 -21 12
-35 28 -35 41 0 5 4 6 8 3 4 -2 14 -1 22 5 12 7 12 9 -3 9 -10 0 -15 5 -12 10
4 7 12 7 25 0 16 -9 18 -7 15 10 -5 27 -14 40 -26 40 -6 0 -3 -7 6 -16 18 -19
12 -32 -8 -16 -15 13 -88 11 -80 -1 3 -5 21 -6 40 -2 32 6 33 5 21 -14 -9 -15
-16 -17 -31 -9 -10 5 -21 7 -25 4 -3 -3 0 -6 7 -6 7 0 9 -4 6 -10 -4 -6 1 -7
11 -3 12 4 15 3 10 -5 -11 -18 -54 -14 -60 6 -3 9 -5 21 -5 26 0 5 -6 13 -15
18 -9 5 -25 27 -36 49 -12 22 -35 53 -52 69 -32 31 -31 38 3 20 13 -7 19 -7
19 0 0 9 -8 12 -55 14 -11 1 -19 7 -17 15 2 8 -3 11 -13 8 -8 -4 -15 -2 -15 3
0 6 -3 9 -7 9 -19 -3 -33 2 -33 11 0 6 75 10 205 10 130 0 205 -4 205 -10z
m3565 -14 c236 -66 365 -239 365 -487 0 -45 -7 -112 -16 -148 -19 -78 -71
-181 -91 -181 -8 0 -12 -4 -9 -9 8 -12 -32 -46 -89 -77 -28 -14 -52 -29 -55
-33 -7 -9 -68 -42 -77 -42 -5 0 -25 -5 -46 -11 -27 -8 -47 -8 -72 -1 -19 6
-33 7 -29 2 3 -5 12 -9 20 -9 8 0 13 -4 9 -9 -3 -6 -35 -10 -70 -11 -36 -1
-71 -1 -77 -1 -12 -1 -172 0 -238 1 -14 0 -30 7 -36 15 -6 8 -15 15 -19 15 -4
0 -2 -6 4 -14 9 -10 8 -15 -1 -18 -17 -6 -88 2 -88 11 0 3 23 16 51 29 35 16
49 28 45 38 -8 22 12 17 24 -7 19 -34 22 -15 4 20 -13 26 -14 35 -4 41 9 5 9
9 1 14 -6 4 -9 12 -5 17 3 5 6 124 6 264 0 188 3 253 12 248 8 -5 8 -3 0 8 -6
8 -11 37 -12 66 0 29 -3 57 -7 63 -3 5 -1 10 5 10 12 0 6 44 -16 113 -17 50
-58 87 -97 87 -11 0 -15 5 -11 11 11 19 544 6 619 -15z m1206 -78 c0 -57 2
-113 5 -125 6 -37 -10 -27 -45 27 -29 45 -79 91 -106 97 -5 1 -28 7 -50 12
-22 6 -80 11 -129 11 -76 0 -87 -2 -82 -16 3 -9 6 -94 6 -190 l0 -174 98 0
c102 0 176 22 188 55 3 8 12 15 20 15 11 0 14 -27 14 -141 0 -91 -4 -138 -10
-134 -5 3 -10 11 -10 17 0 20 -50 78 -81 94 -18 9 -69 17 -127 21 l-97 5 3
-218 c2 -120 5 -220 7 -222 11 -11 141 -13 200 -3 84 15 132 39 174 86 21 24
37 35 48 31 13 -5 14 -4 4 8 -9 10 -9 20 0 40 7 14 16 26 21 26 12 0 10 -25
-6 -105 -16 -78 -24 -122 -25 -146 -1 -15 -17 -16 -130 -15 -90 2 -135 7 -146
16 -13 11 -14 10 -9 -4 6 -16 -4 -17 -115 -14 -68 1 -125 6 -127 10 -3 5 -14
3 -25 -2 -11 -6 -24 -8 -31 -4 -6 4 -38 6 -70 5 -39 -1 -57 2 -53 9 3 5 14 10
24 10 10 0 24 7 31 15 7 8 22 15 34 16 20 0 20 1 2 8 -15 6 -16 9 -5 13 11 4
14 41 14 207 0 131 3 201 10 201 6 0 6 3 -1 8 -7 5 -10 76 -10 212 1 190 -1
208 -20 245 -14 27 -35 47 -63 61 -23 11 -38 23 -35 27 4 4 164 7 356 7 l348
0 1 -102z m-5946 -448 c8 -13 -5 -13 -25 0 -13 8 -13 10 2 10 9 0 20 -4 23
-10z m-1016 -179 c9 -6 10 -10 2 -16 -16 -9 -44 2 -36 15 8 12 16 12 34 1z
m544 -37 c7 -8 -3 -34 -13 -34 -5 0 -8 9 -7 20 1 20 8 25 20 14z m992 -4 c3
-5 1 -10 -4 -10 -6 0 -11 5 -11 10 0 6 2 10 4 10 3 0 8 -4 11 -10z m751 -81
c-1 -17 1 -32 6 -35 19 -12 5 -23 -27 -22 -27 1 -35 6 -35 20 0 10 5 18 11 18
6 0 9 -6 6 -13 -3 -8 3 -13 15 -13 19 0 19 2 -3 21 -26 23 -35 45 -19 45 5 0
13 -8 19 -17 9 -16 10 -15 8 5 -1 14 -8 22 -19 22 -13 0 -18 8 -18 27 l0 27
29 -28 c21 -20 28 -36 27 -57z m-2201 11 c3 -5 2 -10 -4 -10 -5 0 -13 5 -16
10 -3 6 -2 10 4 10 5 0 13 -4 16 -10z m1433 -46 c2 -16 -1 -23 -8 -19 -5 3
-10 13 -10 21 0 8 -6 14 -12 14 -9 0 -8 3 2 10 18 11 23 6 28 -26z m-1502 -34
c9 0 13 -4 9 -10 -9 -14 -35 0 -34 19 0 10 2 11 6 4 2 -7 11 -13 19 -13z m-36
0 c0 -5 -4 -10 -10 -10 -5 0 -10 5 -10 10 0 6 5 10 10 10 6 0 10 -4 10 -10z
m0 -35 c0 -8 -2 -15 -4 -15 -2 0 -6 7 -10 15 -3 8 -1 15 4 15 6 0 10 -7 10
-15z m30 -11 c0 -8 -4 -14 -10 -14 -5 0 -10 9 -10 21 0 11 5 17 10 14 6 -3 10
-13 10 -21z m1664 -10 c8 -20 -8 -17 -28 5 -17 19 -17 19 2 14 12 -3 23 -11
26 -19z m571 16 c3 -5 1 -10 -4 -10 -6 0 -11 5 -11 10 0 6 2 10 4 10 3 0 8 -4
11 -10z m-1258 -25 c-15 -16 -19 -13 -11 9 3 9 10 13 15 10 5 -3 3 -11 -4 -19z
m663 -3 c8 -9 24 -17 34 -17 11 0 21 -6 24 -12 2 -7 -1 -13 -8 -13 -6 0 -8 5
-5 10 3 6 2 10 -4 10 -5 0 -12 -4 -16 -10 -3 -5 -12 -7 -20 -4 -8 4 -12 11 -8
17 4 6 0 8 -10 4 -10 -3 -17 -2 -17 4 0 5 -11 7 -26 3 -19 -5 -25 -4 -20 5 4
6 2 11 -3 11 -6 0 -11 4 -11 9 0 15 74 1 90 -17z m-1630 -2 c-13 -9 -13 -10 0
-11 8 -1 22 -1 30 0 9 1 16 -7 17 -19 2 -28 -43 -28 -50 0 -7 26 -21 25 -35
-2 -8 -18 -11 -19 -11 -5 -1 9 -6 17 -12 17 -6 0 -9 -6 -6 -14 6 -16 -24 -17
-35 -1 -5 6 -8 5 -8 -2 0 -7 -9 -13 -20 -13 -30 0 -24 13 16 32 28 13 34 13
30 2 -4 -11 -2 -12 14 -2 14 9 16 14 7 20 -7 4 2 5 19 2 19 -4 34 -1 39 6 4 6
10 9 13 5 4 -3 0 -10 -8 -15z m951 -19 c11 -10 17 -21 12 -24 -10 -6 -104 -4
-97 2 5 5 58 39 62 40 2 1 12 -8 23 -18z m-961 -21 c0 -5 -4 -10 -10 -10 -5 0
-10 5 -10 10 0 6 5 10 10 10 6 0 10 -4 10 -10z m2240 0 c12 -8 11 -10 -7 -10
-12 0 -25 5 -28 10 -8 13 15 13 35 0z"/>
<path d="M3780 6164 l0 -1514 88 -1 c855 -5 1739 0 1807 11 157 24 316 99 431
204 34 30 64 53 68 51 3 -3 4 -2 2 1 -5 6 49 81 87 123 12 13 20 24 18 25 -2
1 7 21 20 46 12 25 22 49 21 54 -2 5 7 6 18 3 21 -5 21 -5 4 14 -9 10 -13 19
-7 19 9 0 45 162 50 225 12 168 -3 298 -50 420 -70 184 -182 328 -351 450
l-28 20 85 86 c101 102 158 207 185 341 9 46 19 84 22 86 10 4 2 222 -10 275
-66 292 -255 478 -565 553 -63 16 -159 18 -982 20 l-913 2 0 -1514z m1507
1131 c122 -24 200 -73 263 -167 55 -83 80 -169 80 -277 0 -94 -18 -177 -51
-244 -31 -60 -97 -136 -125 -143 -13 -3 -21 -10 -18 -15 3 -5 -2 -9 -10 -9 -9
0 -16 -4 -16 -10 0 -5 -3 -9 -7 -8 -5 2 -34 -10 -67 -27 l-58 -29 83 -18 c125
-27 214 -75 312 -168 108 -102 170 -218 191 -360 8 -55 17 -240 12 -240 -3 0
-43 25 -90 55 -46 30 -87 55 -90 55 -4 0 -20 10 -36 22 -25 18 -30 29 -30 62
0 144 -108 308 -258 393 -108 62 -224 82 -482 84 -91 0 -178 0 -195 0 l-30 -1
3 -265 c3 -256 2 -265 -17 -265 -10 0 -78 -36 -149 -79 l-131 -79 -1 226 c-1
125 -1 234 -1 242 0 8 0 71 0 140 -1 69 -1 301 -1 516 l0 392 -47 52 c-25 29
-71 79 -102 111 -31 32 -54 60 -52 63 3 3 240 5 527 5 403 0 537 -3 593 -14z
m79 -1457 c13 -6 24 -20 24 -31 0 -20 -59 -189 -233 -667 l-93 -255 -72 -1
c-70 -2 -72 -1 -66 20 4 11 13 25 20 29 8 4 14 13 14 20 0 7 -4 6 -10 -3 -5
-8 -10 -10 -10 -4 0 6 9 23 21 38 11 14 17 30 14 36 -3 5 2 10 11 10 14 0 15
3 6 12 -15 15 -16 31 0 22 8 -5 9 -2 5 9 -3 10 -2 17 4 17 6 0 7 5 4 10 -3 6
-2 10 3 10 5 0 9 10 8 23 -1 14 4 21 13 19 12 -3 12 0 1 12 -13 16 -10 19 25
18 17 -1 17 0 3 4 -20 6 -23 19 -8 29 6 4 8 10 5 15 -8 13 16 69 28 66 7 -1 9
-1 5 1 -5 3 -8 11 -8 19 0 9 5 12 12 8 7 -4 8 -3 4 5 -11 18 2 63 16 55 7 -4
8 -3 4 5 -4 6 -2 27 4 47 9 25 16 34 27 29 13 -4 14 -3 3 10 -9 11 -9 15 -1
15 7 0 9 5 6 10 -3 6 -1 10 4 10 6 0 11 5 11 11 0 5 -6 7 -12 4 -7 -4 -6 -1 3
7 9 7 15 21 13 30 -1 9 4 22 12 29 8 6 12 15 9 19 -8 13 24 94 42 108 9 6 12
12 5 12 -15 0 -4 31 16 48 9 7 11 12 4 12 -6 0 -9 7 -6 15 4 8 9 13 14 10 4
-2 5 7 2 22 -5 25 -4 26 32 19 21 -4 49 -12 62 -18z m-508 -274 l3 -69 -89
-46 c-110 -58 -136 -72 -142 -80 -3 -3 -22 -15 -43 -26 l-39 -19 24 -15 c12
-8 83 -49 155 -90 l133 -74 0 -79 c0 -74 -1 -78 -17 -64 -10 8 -43 29 -73 45
-30 16 -89 50 -130 75 -41 25 -121 71 -177 103 -91 50 -103 60 -103 84 0 15
-4 31 -10 37 -7 7 73 57 238 151 136 78 252 141 257 139 6 -1 11 -34 13 -72z
m844 -63 l243 -140 3 -40 c3 -34 0 -40 -20 -47 -13 -4 -26 -7 -30 -6 -5 1 -8
-2 -8 -8 0 -11 -80 -54 -80 -43 0 5 -5 1 -10 -7 -5 -8 -13 -15 -17 -15 -23 -2
-53 -18 -48 -26 4 -5 -1 -9 -10 -9 -9 0 -27 -7 -40 -16 -14 -9 -25 -14 -25
-11 0 3 -12 -5 -27 -19 -14 -13 -37 -27 -50 -30 -13 -4 -23 -11 -23 -16 0 -6
-11 -8 -25 -5 -14 2 -24 2 -21 0 7 -7 -18 -32 -26 -26 -5 2 -8 0 -8 -6 0 -6
-9 -15 -20 -21 -16 -8 -20 -8 -18 2 2 7 8 16 13 21 7 4 6 10 -1 15 -6 4 -10
20 -8 37 2 16 -1 34 -7 41 -6 7 -5 15 3 21 16 13 207 119 266 149 l44 21 -69
45 c-37 25 -103 65 -145 89 l-78 44 0 57 c0 31 -3 63 -6 72 -3 9 -4 16 0 16 3
0 115 -63 248 -139z"/>
<path d="M4670 6791 l0 -321 185 0 c261 0 320 16 414 111 67 68 86 124 77 232
-8 90 -21 127 -61 175 -75 90 -151 111 -412 118 l-203 6 0 -321z"/>
<path d="M4978 4943 c7 -3 16 -2 19 1 4 3 -2 6 -13 5 -11 0 -14 -3 -6 -6z"/>
<path d="M4588 5243 c7 -3 16 -2 19 1 4 3 -2 6 -13 5 -11 0 -14 -3 -6 -6z"/>
<path d="M4708 5193 c7 -3 16 -2 19 1 4 3 -2 6 -13 5 -11 0 -14 -3 -6 -6z"/>
<path d="M4810 5140 c0 -5 5 -10 11 -10 5 0 7 5 4 10 -3 6 -8 10 -11 10 -2 0
-4 -4 -4 -10z"/>
<path d="M3610 5516 c0 -2 7 -7 16 -10 8 -3 12 -2 9 4 -6 10 -25 14 -25 6z"/>
<path d="M3700 5426 c0 -2 9 -6 20 -9 11 -3 18 -1 14 4 -5 9 -34 13 -34 5z"/>
<path d="M3751 5264 c0 -11 3 -14 6 -6 3 7 2 16 -1 19 -3 4 -6 -2 -5 -13z"/>
<path d="M3630 5252 c0 -4 10 -9 22 -9 18 -2 20 0 8 7 -18 12 -30 13 -30 2z"/>
<path d="M3680 5250 c0 -6 7 -10 15 -10 8 0 15 2 15 4 0 2 -7 6 -15 10 -8 3
-15 1 -15 -4z"/>
<path d="M3736 5212 c-3 -5 1 -9 9 -9 8 0 12 4 9 9 -3 4 -7 8 -9 8 -2 0 -6 -4
-9 -8z"/>
<path d="M3660 5070 c8 -5 20 -10 25 -10 6 0 3 5 -5 10 -8 5 -19 10 -25 10 -5
0 -3 -5 5 -10z"/>
<path d="M3640 5036 c0 -2 8 -10 18 -17 15 -13 16 -12 3 4 -13 16 -21 21 -21
13z"/>
<path d="M3725 5020 c3 -5 8 -10 11 -10 2 0 4 5 4 10 0 6 -5 10 -11 10 -5 0
-7 -4 -4 -10z"/>
<path d="M3620 4990 c8 -5 20 -10 25 -10 6 0 3 5 -5 10 -8 5 -19 10 -25 10 -5
0 -3 -5 5 -10z"/>
<path d="M3708 4983 c7 -3 16 -2 19 1 4 3 -2 6 -13 5 -11 0 -14 -3 -6 -6z"/>
<path d="M3600 4946 c0 -2 7 -7 16 -10 8 -3 12 -2 9 4 -6 10 -25 14 -25 6z"/>
<path d="M3717 4919 c7 -7 15 -10 18 -7 3 3 -2 9 -12 12 -14 6 -15 5 -6 -5z"/>
<path d="M3618 4883 c7 -3 16 -2 19 1 4 3 -2 6 -13 5 -11 0 -14 -3 -6 -6z"/>
<path d="M3663 4845 c0 -8 4 -12 9 -9 5 3 6 10 3 15 -9 13 -12 11 -12 -6z"/>
<path d="M3740 4840 c0 -5 5 -10 11 -10 5 0 7 5 4 10 -3 6 -8 10 -11 10 -2 0
-4 -4 -4 -10z"/>
<path d="M3693 4773 c9 -2 23 -2 30 0 6 3 -1 5 -18 5 -16 0 -22 -2 -12 -5z"/>
<path d="M3745 4760 c3 -5 8 -10 11 -10 2 0 4 5 4 10 0 6 -5 10 -11 10 -5 0
-7 -4 -4 -10z"/>
<path d="M6270 4760 c-9 -6 -10 -10 -3 -10 6 0 15 5 18 10 8 12 4 12 -15 0z"/>
<path d="M3686 4736 c3 -9 16 -16 28 -15 14 0 16 2 6 6 -8 3 -21 10 -28 16 -9
7 -11 6 -6 -7z"/>
<path d="M6236 4718 c3 -5 10 -6 15 -3 13 9 11 12 -6 12 -8 0 -12 -4 -9 -9z"/>
<path d="M3730 4701 c0 -5 7 -12 16 -15 14 -5 15 -4 4 9 -14 17 -20 19 -20 6z"/>
<path d="M5910 4666 c0 -2 7 -7 16 -10 8 -3 12 -2 9 4 -6 10 -25 14 -25 6z"/>
<path d="M3738 4643 c7 -3 16 -2 19 1 4 3 -2 6 -13 5 -11 0 -14 -3 -6 -6z"/>
<path d="M5710 4631 c0 -9 30 -24 36 -18 2 1 -6 8 -16 15 -11 7 -20 8 -20 3z"/>
<path d="M3600 4621 c0 -5 5 -13 10 -16 6 -3 10 -2 10 4 0 5 -4 13 -10 16 -5
3 -10 2 -10 -4z"/>
<path d="M5633 4623 c9 -2 25 -2 35 0 9 3 1 5 -18 5 -19 0 -27 -2 -17 -5z"/>
<path d="M3706 4605 c4 -8 11 -15 16 -15 6 0 5 6 -2 15 -7 8 -14 15 -16 15 -2
0 -1 -7 2 -15z"/>
<path d="M3762 4615 c9 -9 68 -12 68 -4 0 5 -16 9 -37 9 -20 0 -34 -2 -31 -5z"/>
<path d="M3852 4613 c-6 -2 -10 -9 -6 -14 3 -5 -1 -9 -8 -9 -8 0 -6 -5 5 -11
9 -6 15 -13 13 -17 -3 -4 7 -9 22 -10 l27 -1 -28 15 c-16 9 -27 18 -24 21 3 2
15 0 26 -6 17 -9 20 -9 15 3 -3 9 -9 15 -12 14 -20 -2 -25 3 -12 12 16 10 4
12 -18 3z"/>
<path d="M4041 4617 c2 -1 15 -11 29 -22 l25 -20 -19 23 c-11 12 -24 22 -29
22 -6 0 -8 -1 -6 -3z"/>
<path d="M4100 4611 c0 -6 4 -13 10 -16 6 -3 7 1 4 9 -7 18 -14 21 -14 7z"/>
<path d="M4128 4613 c7 -3 16 -2 19 1 4 3 -2 6 -13 5 -11 0 -14 -3 -6 -6z"/>
<path d="M4228 4613 c6 -2 18 -2 25 0 6 3 1 5 -13 5 -14 0 -19 -2 -12 -5z"/>
<path d="M4335 4610 c28 -12 37 -12 30 0 -3 6 -16 10 -28 9 -21 0 -21 -1 -2
-9z"/>
<path d="M4380 4617 c0 -1 14 -16 32 -32 31 -29 31 -18 0 18 -13 14 -32 23
-32 14z"/>
<path d="M4805 4610 c3 -5 11 -10 16 -10 6 0 7 5 4 10 -3 6 -11 10 -16 10 -6
0 -7 -4 -4 -10z"/>
<path d="M5098 4613 c7 -3 16 -2 19 1 4 3 -2 6 -13 5 -11 0 -14 -3 -6 -6z"/>
<path d="M5328 4613 c7 -3 16 -2 19 1 4 3 -2 6 -13 5 -11 0 -14 -3 -6 -6z"/>
<path d="M4980 4606 c0 -2 7 -7 16 -10 8 -3 12 -2 9 4 -6 10 -25 14 -25 6z"/>
<path d="M5457 4599 c7 -7 15 -10 18 -7 3 3 -2 9 -12 12 -14 6 -15 5 -6 -5z"/>
<path d="M3670 4596 c0 -2 8 -10 18 -17 15 -13 16 -12 3 4 -13 16 -21 21 -21
13z"/>
<path d="M4020 4596 c0 -2 7 -7 16 -10 8 -3 12 -2 9 4 -6 10 -25 14 -25 6z"/>
<path d="M4575 4583 c20 -15 19 -15 -5 -10 -24 6 -24 5 -6 -8 14 -11 22 -12
27 -4 4 6 13 16 20 21 11 8 10 9 -3 4 -10 -3 -20 -1 -23 4 -4 6 -12 10 -18 10
-7 0 -3 -8 8 -17z"/>
<path d="M4768 4593 c7 -3 16 -2 19 1 4 3 -2 6 -13 5 -11 0 -14 -3 -6 -6z"/>
<path d="M4946 4587 c3 -10 9 -15 12 -12 3 3 0 11 -7 18 -10 9 -11 8 -5 -6z"/>
<path d="M5161 4584 c0 -11 3 -14 6 -6 3 7 2 16 -1 19 -3 4 -6 -2 -5 -13z"/>
<path d="M3630 4586 c0 -3 14 -12 30 -21 17 -9 30 -13 30 -11 0 3 -13 12 -30
21 -16 9 -30 13 -30 11z"/>
<path d="M4506 4581 c-4 -5 3 -7 14 -4 23 6 26 13 6 13 -8 0 -17 -4 -20 -9z"/>
<path d="M5800 4586 c0 -2 7 -6 15 -10 8 -3 15 -1 15 4 0 6 -7 10 -15 10 -8 0
-15 -2 -15 -4z"/>
<path d="M4039 4559 c18 -11 35 -18 38 -15 5 5 -50 36 -64 36 -4 0 7 -9 26
-21z"/>
<path d="M4190 4576 c0 -3 9 -10 20 -16 11 -6 20 -8 20 -6 0 3 -9 10 -20 16
-11 6 -20 8 -20 6z"/>
<path d="M4378 4573 c6 -2 18 -2 25 0 6 3 1 5 -13 5 -14 0 -19 -2 -12 -5z"/>
<path d="M4470 4571 c0 -6 4 -13 10 -16 6 -3 7 1 4 9 -7 18 -14 21 -14 7z"/>
<path d="M4709 4566 c6 -7 22 -11 36 -8 31 6 30 7 -14 16 -27 5 -31 4 -22 -8z"/>
<path d="M4978 4573 c6 -2 18 -2 25 0 6 3 1 5 -13 5 -14 0 -19 -2 -12 -5z"/>
<path d="M5200 4576 c0 -2 7 -7 16 -10 8 -3 12 -2 9 4 -6 10 -25 14 -25 6z"/>
<path d="M5550 4571 c0 -9 30 -24 36 -18 2 1 -6 8 -16 15 -11 7 -20 8 -20 3z"/>
<path d="M3760 4555 c7 -8 17 -15 22 -15 5 0 3 7 -6 15 -8 8 -18 15 -22 15 -3
0 -1 -7 6 -15z"/>
<path d="M3940 4561 c0 -6 4 -13 10 -16 6 -3 7 1 4 9 -7 18 -14 21 -14 7z"/>
<path d="M4157 4551 c3 -11 11 -22 19 -25 11 -4 11 0 -2 19 -20 30 -24 31 -17
6z"/>
<path d="M4862 4561 c-10 -6 -7 -10 12 -13 21 -4 24 -3 15 8 -13 16 -11 16
-27 5z"/>
<path d="M5315 4560 c3 -5 11 -10 16 -10 6 0 7 5 4 10 -3 6 -11 10 -16 10 -6
0 -7 -4 -4 -10z"/>
<path d="M5616 4561 c-4 -5 3 -7 14 -4 23 6 26 13 6 13 -8 0 -17 -4 -20 -9z"/>
<path d="M5690 4566 c0 -2 8 -10 18 -17 15 -13 16 -12 3 4 -13 16 -21 21 -21
13z"/>
<path d="M5968 4563 c7 -3 16 -2 19 1 4 3 -2 6 -13 5 -11 0 -14 -3 -6 -6z"/>
<path d="M3610 4549 c0 -5 5 -7 10 -4 6 3 10 1 10 -4 0 -6 5 -11 11 -11 8 0 8
5 -1 15 -14 17 -30 20 -30 4z"/>
<path d="M3990 4552 c0 -17 21 -25 31 -13 5 6 6 9 3 6 -4 -3 -13 0 -21 6 -9 8
-13 8 -13 1z"/>
<path d="M4356 4551 c-3 -5 1 -14 9 -21 10 -8 15 -9 15 -2 0 6 8 9 18 6 13 -5
14 -4 3 4 -8 6 -21 8 -29 4 -10 -3 -13 -1 -8 6 4 7 5 12 2 12 -3 0 -7 -4 -10
-9z"/>
<path d="M4810 4550 c-9 -6 -10 -10 -3 -10 6 0 15 5 18 10 8 12 4 12 -15 0z"/>
<path d="M4128 4543 c7 -3 16 -2 19 1 4 3 -2 6 -13 5 -11 0 -14 -3 -6 -6z"/>
<path d="M4556 4539 c2 -4 -2 -10 -8 -12 -7 -3 2 -4 21 -2 44 5 49 12 12 17
-16 2 -28 1 -25 -3z"/>
<path d="M5290 4547 c0 -2 15 -14 33 -27 l32 -23 -24 26 c-21 23 -41 35 -41
24z"/>
<path d="M3706 4510 c15 -16 32 -30 38 -30 6 0 0 9 -14 20 -22 17 -23 20 -6
20 26 0 15 10 -18 16 l-27 4 27 -30z"/>
<path d="M3758 4528 c5 -5 16 -8 23 -6 8 3 3 7 -10 11 -17 4 -21 3 -13 -5z"/>
<path d="M3877 4528 c20 -10 21 -12 7 -23 -14 -10 -14 -12 3 -26 16 -13 17
-12 5 2 -10 14 -10 18 5 24 17 6 17 7 -1 21 -11 8 -25 14 -30 13 -6 0 -1 -5
11 -11z"/>
<path d="M4244 4525 c11 -8 24 -15 30 -15 5 0 1 7 -10 15 -10 8 -23 14 -29 14
-5 0 -1 -6 9 -14z"/>
<path d="M5049 4514 c17 -14 39 -23 48 -21 15 4 14 5 -3 6 -11 0 -29 10 -39
21 -10 11 -22 20 -27 20 -5 0 4 -12 21 -26z"/>
<path d="M5168 4533 c7 -3 16 -2 19 1 4 3 -2 6 -13 5 -11 0 -14 -3 -6 -6z"/>
<path d="M5260 4529 c0 -5 5 -7 10 -4 6 3 10 8 10 11 0 2 -4 4 -10 4 -5 0 -10
-5 -10 -11z"/>
<path d="M4041 4527 c2 -1 12 -9 22 -16 15 -12 17 -12 11 3 -3 9 -13 16 -22
16 -8 0 -13 -1 -11 -3z"/>
<path d="M4820 4520 c0 -5 5 -10 11 -10 5 0 7 5 4 10 -3 6 -8 10 -11 10 -2 0
-4 -4 -4 -10z"/>
<path d="M4886 4517 c3 -10 9 -15 12 -12 3 3 0 11 -7 18 -10 9 -11 8 -5 -6z"/>
<path d="M4975 4520 c-3 -6 1 -7 9 -4 18 7 21 14 7 14 -6 0 -13 -4 -16 -10z"/>
<path d="M5450 4526 c0 -2 9 -6 20 -9 11 -3 18 -1 14 4 -5 9 -34 13 -34 5z"/>
<path d="M3805 4510 c3 -5 8 -10 11 -10 2 0 4 5 4 10 0 6 -5 10 -11 10 -5 0
-7 -4 -4 -10z"/>
<path d="M3830 4509 c0 -4 6 -9 13 -12 8 -3 14 0 14 7 0 7 -6 13 -14 13 -7 0
-13 -4 -13 -8z"/>
<path d="M4938 4513 c7 -3 16 -2 19 1 4 3 -2 6 -13 5 -11 0 -14 -3 -6 -6z"/>
<path d="M5406 4508 c3 -5 10 -6 15 -3 13 9 11 12 -6 12 -8 0 -12 -4 -9 -9z"/>
<path d="M3676 4495 c4 -8 11 -15 16 -15 6 0 5 6 -2 15 -7 8 -14 15 -16 15 -2
0 -1 -7 2 -15z"/>
<path d="M3765 4501 c-3 -5 -2 -12 3 -15 5 -3 9 1 9 9 0 17 -3 19 -12 6z"/>
<path d="M4230 4491 c31 -25 40 -26 39 -3 0 10 -3 12 -6 5 -3 -9 -11 -9 -31 3
l-27 16 25 -21z"/>
<path d="M4383 4500 c2 -8 12 -16 23 -17 13 -2 15 -1 4 4 -8 3 -19 11 -23 17
-6 7 -7 6 -4 -4z"/>
<path d="M4600 4506 c0 -2 7 -9 15 -16 13 -11 14 -10 9 4 -5 14 -24 23 -24 12z"/>
<path d="M4635 4499 c5 -6 55 0 55 7 0 3 -13 3 -29 2 -16 -1 -28 -5 -26 -9z"/>
<path d="M3911 4497 c2 -1 13 -9 24 -17 19 -14 19 -14 6 3 -7 9 -18 17 -24 17
-6 0 -8 -1 -6 -3z"/>
<path d="M4097 4489 c7 -7 15 -10 18 -7 3 3 -2 9 -12 12 -14 6 -15 5 -6 -5z"/>
<path d="M4310 4490 c-8 -5 -10 -10 -5 -10 6 0 17 5 25 10 8 5 11 10 5 10 -5
0 -17 -5 -25 -10z"/>
<path d="M4710 4490 c0 -6 7 -10 15 -10 8 0 15 2 15 4 0 2 -7 6 -15 10 -8 3
-15 1 -15 -4z"/>
<path d="M5017 4489 c7 -7 15 -10 18 -7 3 3 -2 9 -12 12 -14 6 -15 5 -6 -5z"/>
<path d="M4458 4483 c6 -2 18 -2 25 0 6 3 1 5 -13 5 -14 0 -19 -2 -12 -5z"/>
<path d="M5130 4486 c0 -2 7 -7 16 -10 8 -3 12 -2 9 4 -6 10 -25 14 -25 6z"/>
<path d="M5100 3751 c0 -4 11 -6 25 -3 14 2 25 6 25 8 0 2 -11 4 -25 4 -14 0
-25 -4 -25 -9z"/>
<path d="M5248 3743 c6 -2 18 -2 25 0 6 3 1 5 -13 5 -14 0 -19 -2 -12 -5z"/>
<path d="M5120 3731 c0 -10 19 -25 25 -20 1 2 -3 10 -11 17 -8 7 -14 8 -14 3z"/>
<path d="M5260 3726 c0 -2 7 -7 16 -10 8 -3 12 -2 9 4 -6 10 -25 14 -25 6z"/>
<path d="M5168 3703 c7 -3 16 -2 19 1 4 3 -2 6 -13 5 -11 0 -14 -3 -6 -6z"/>
<path d="M5365 3698 c11 -6 26 -18 33 -26 11 -14 12 -14 12 1 0 10 -12 22 -26
27 -34 13 -44 12 -19 -2z"/>
<path d="M4850 3696 c0 -2 7 -7 16 -10 8 -3 12 -2 9 4 -6 10 -25 14 -25 6z"/>
<path d="M5340 3671 c0 -9 30 -24 36 -18 2 1 -6 8 -16 15 -11 7 -20 8 -20 3z"/>
<path d="M4806 3662 c-3 -5 1 -9 9 -9 8 0 12 4 9 9 -3 4 -7 8 -9 8 -2 0 -6 -4
-9 -8z"/>
<path d="M5387 3643 c-13 -12 -7 -23 11 -22 10 0 12 3 4 6 -6 2 -10 9 -6 14 6
10 0 12 -9 2z"/>
<path d="M5350 3616 c0 -2 7 -7 16 -10 8 -3 12 -2 9 4 -6 10 -25 14 -25 6z"/>
<path d="M4855 3600 c-3 -5 1 -10 10 -10 9 0 13 5 10 10 -3 6 -8 10 -10 10 -2
0 -7 -4 -10 -10z"/>
<path d="M4750 3588 c0 -4 4 -8 9 -8 6 0 12 4 15 8 3 5 -1 9 -9 9 -8 0 -15 -4
-15 -9z"/>
<path d="M4720 3581 c0 -6 4 -13 10 -16 6 -3 7 1 4 9 -7 18 -14 21 -14 7z"/>
<path d="M4795 3579 c-4 -6 -5 -12 -2 -15 2 -3 7 2 10 11 7 17 1 20 -8 4z"/>
<path d="M4823 3563 c8 -13 -17 -36 -27 -26 -4 4 -4 0 0 -10 9 -24 19 -21 32
8 8 18 8 26 0 31 -6 4 -8 3 -5 -3z"/>
<path d="M4756 3548 c3 -5 10 -6 15 -3 13 9 11 12 -6 12 -8 0 -12 -4 -9 -9z"/>
<path d="M4680 3540 c0 -5 5 -10 11 -10 5 0 7 5 4 10 -3 6 -8 10 -11 10 -2 0
-4 -4 -4 -10z"/>
<path d="M4720 3536 c0 -2 7 -9 15 -16 9 -7 15 -8 15 -2 0 5 -7 12 -15 16 -8
3 -15 4 -15 2z"/>
<path d="M4678 3503 c7 -3 16 -2 19 1 4 3 -2 6 -13 5 -11 0 -14 -3 -6 -6z"/>
<path d="M4738 3493 c7 -3 16 -2 19 1 4 3 -2 6 -13 5 -11 0 -14 -3 -6 -6z"/>
<path d="M4710 3487 c0 -2 6 -10 14 -16 11 -9 16 -9 22 1 4 7 4 10 -1 6 -4 -4
-14 -3 -22 3 -7 6 -13 9 -13 6z"/>
<path d="M4745 3450 c-3 -5 1 -10 10 -10 9 0 13 5 10 10 -3 6 -8 10 -10 10 -2
0 -7 -4 -10 -10z"/>
<path d="M4666 3437 c3 -10 9 -15 12 -12 3 3 0 11 -7 18 -10 9 -11 8 -5 -6z"/>
<path d="M4750 3400 c-6 -11 -8 -20 -6 -20 3 0 10 9 16 20 6 11 8 20 6 20 -3
0 -10 -9 -16 -20z"/>
<path d="M4690 3395 c0 -6 6 -17 13 -24 10 -12 8 -13 -8 -7 -16 6 -18 5 -7 -5
10 -11 16 -10 30 5 9 11 12 16 5 12 -6 -3 -16 2 -22 11 -6 10 -11 13 -11 8z"/>
<path d="M4670 3344 c0 -5 7 -18 15 -28 12 -16 15 -17 15 -4 0 8 -7 21 -15 28
-8 7 -15 9 -15 4z"/>
<path d="M4716 3318 c3 -5 10 -6 15 -3 13 9 11 12 -6 12 -8 0 -12 -4 -9 -9z"/>
<path d="M4723 3285 c-10 -10 -9 -16 1 -24 11 -9 14 -6 14 14 0 14 -1 25 -2
25 0 -1 -6 -7 -13 -15z"/>
<path d="M4602 3246 c7 -16 18 -23 33 -22 13 0 21 4 18 9 -2 4 -12 6 -21 5 -9
-2 -16 2 -15 9 1 6 -4 14 -12 17 -11 4 -12 1 -3 -18z"/>
<path d="M4675 3230 c4 -6 11 -8 16 -5 14 9 11 15 -7 15 -8 0 -12 -5 -9 -10z"/>
<path d="M4635 3180 c27 -12 43 -12 25 0 -8 5 -22 9 -30 9 -10 0 -8 -3 5 -9z"/>
<path d="M4720 3180 c0 -6 -4 -8 -10 -5 -5 3 -10 2 -10 -4 0 -5 9 -9 20 -8 21
1 26 12 10 22 -5 3 -10 1 -10 -5z"/>
<path d="M4595 3150 c-3 -5 -1 -10 4 -10 6 0 11 5 11 10 0 6 -2 10 -4 10 -3 0
-8 -4 -11 -10z"/>
<path d="M4655 3150 c3 -5 8 -10 11 -10 2 0 4 5 4 10 0 6 -5 10 -11 10 -5 0
-7 -4 -4 -10z"/>
<path d="M4674 3136 c-9 -10 -3 -13 26 -12 23 0 37 5 37 13 0 7 -4 13 -9 13
-4 0 -8 -5 -8 -10 0 -7 -6 -7 -17 -1 -12 6 -22 5 -29 -3z"/>
<path d="M4606 3118 c3 -5 10 -6 15 -3 13 9 11 12 -6 12 -8 0 -12 -4 -9 -9z"/>
<path d="M4634 3098 c-4 -7 -4 -10 1 -6 4 4 15 3 22 -4 8 -7 22 -13 31 -14 10
-1 24 -4 32 -6 8 -3 12 -3 7 -1 -4 3 -5 9 -2 14 4 5 -2 6 -11 2 -12 -4 -15 -3
-10 5 9 15 33 16 39 2 3 -6 4 -5 3 2 -3 15 -46 24 -46 10 0 -11 -32 -12 -47 0
-7 6 -14 4 -19 -4z"/>
<path d="M4651 3059 c17 -26 42 -38 34 -17 -3 7 -15 20 -27 27 -22 14 -22 13
-7 -10z"/>
<path d="M4709 3038 c17 -17 25 -19 28 -10 4 10 10 9 25 -5 21 -18 21 -18 9 5
-13 24 -26 28 -37 11 -5 -8 -10 -6 -16 5 -5 9 -14 16 -21 16 -6 0 -1 -10 12
-22z"/>
<path d="M4653 3011 c0 -11 6 -17 14 -14 7 3 16 -2 19 -11 5 -14 9 -14 22 -4
12 10 16 10 19 1 3 -7 12 -13 21 -13 13 0 11 4 -6 16 -12 8 -26 13 -31 9 -5
-3 -12 -1 -16 5 -3 5 -15 14 -25 20 -15 8 -19 7 -17 -9z"/>
<path d="M4745 3000 c3 -5 8 -10 11 -10 2 0 4 5 4 10 0 6 -5 10 -11 10 -5 0
-7 -4 -4 -10z"/>
<path d="M4775 2970 c-3 -5 -2 -10 4 -10 6 0 8 -7 5 -15 -4 -8 -1 -15 6 -15 6
0 9 4 6 9 -4 5 -1 11 5 13 7 2 6 8 -4 16 -10 9 -17 10 -22 2z"/>
<path d="M4674 2955 c8 -8 18 -15 22 -15 3 0 1 7 -6 15 -7 8 -17 15 -22 15 -5
0 -3 -7 6 -15z"/>
<path d="M4715 2950 c-3 -5 -5 -10 -3 -11 27 -6 39 -5 45 4 3 7 3 9 -2 5 -4
-4 -14 -3 -21 3 -8 7 -14 7 -19 -1z"/>
<path d="M4664 2922 c8 -7 77 -32 91 -32 23 0 -14 20 -53 29 -24 5 -41 7 -38
3z"/>
<path d="M4793 2900 c-1 -9 18 -24 46 -37 57 -28 71 -29 40 -4 -13 10 -29 16
-36 14 -11 -4 -17 11 -15 37 0 3 -7 6 -17 6 -9 0 -18 -7 -18 -16z"/>
<path d="M4680 2888 c0 -6 3 -8 6 -5 4 3 16 0 28 -8 11 -8 25 -15 31 -15 5 0
-3 9 -20 20 -34 23 -45 25 -45 8z"/>
<path d="M5415 2880 c3 -5 11 -10 16 -10 6 0 7 5 4 10 -3 6 -11 10 -16 10 -6
0 -7 -4 -4 -10z"/>
<path d="M4767 2868 c-3 -9 6 -14 27 -15 17 0 24 1 16 4 -8 3 -20 10 -26 15
-7 5 -14 4 -17 -4z"/>
<path d="M5407 2854 c2 -7 11 -10 19 -7 19 7 18 10 -5 16 -13 3 -18 1 -14 -9z"/>
<path d="M4880 2821 c0 -5 7 -11 14 -14 10 -4 13 -1 9 9 -6 15 -23 19 -23 5z"/>
<path d="M5358 2823 c7 -3 16 -2 19 1 4 3 -2 6 -13 5 -11 0 -14 -3 -6 -6z"/>
<path d="M5420 2819 c0 -5 5 -7 10 -4 6 3 10 8 10 11 0 2 -4 4 -10 4 -5 0 -10
-5 -10 -11z"/>
<path d="M4780 2810 c8 -5 20 -10 25 -10 6 0 3 5 -5 10 -8 5 -19 10 -25 10 -5
0 -3 -5 5 -10z"/>
<path d="M4930 2804 c0 -9 53 -54 63 -54 5 0 5 4 2 10 -4 6 1 7 12 4 16 -6 15
-5 -2 9 -10 8 -24 13 -31 10 -6 -2 -14 3 -17 11 -6 15 -27 23 -27 10z"/>
<path d="M5318 2798 c5 -5 16 -8 23 -6 8 3 3 7 -10 11 -17 4 -21 3 -13 -5z"/>
<path d="M4859 2798 c-8 -26 -5 -36 9 -31 10 4 13 2 8 -5 -4 -7 -2 -12 3 -12
16 0 13 20 -4 26 -8 4 -12 10 -9 15 3 5 3 9 0 9 -3 0 -6 -1 -7 -2z"/>
<path d="M4898 2783 c7 -3 16 -2 19 1 4 3 -2 6 -13 5 -11 0 -14 -3 -6 -6z"/>
<path d="M5317 2768 c5 -9 60 -4 70 5 3 4 -12 6 -34 4 -23 -1 -39 -5 -36 -9z"/>
<path d="M4901 2754 c0 -11 3 -14 6 -6 3 7 2 16 -1 19 -3 4 -6 -2 -5 -13z"/>
<path d="M5170 2765 c0 -2 7 -8 15 -15 12 -10 15 -10 15 2 0 8 -7 15 -15 15
-8 0 -15 -1 -15 -2z"/>
<path d="M4923 2746 c0 -6 11 -12 25 -13 14 0 28 -7 33 -14 4 -7 11 -10 14 -7
10 9 -30 41 -53 43 -10 1 -19 -3 -19 -9z"/>
<path d="M5020 2750 c-26 -8 -26 -9 3 -15 9 -2 17 1 17 5 0 5 10 11 23 13 18
4 19 4 2 5 -11 0 -31 -4 -45 -8z"/>
<path d="M5108 2749 c15 -6 30 -5 40 1 13 7 8 9 -23 9 -35 0 -37 -1 -17 -10z"/>
<path d="M5056 2725 c4 -8 10 -12 15 -9 11 6 2 24 -11 24 -5 0 -7 -7 -4 -15z"/>
<path d="M5083 2725 c0 -9 6 -14 14 -11 7 3 13 1 13 -5 0 -6 5 -7 11 -4 6 5 4
12 -8 21 -24 18 -30 17 -30 -1z"/>
<path d="M5178 2725 c13 -9 26 -14 29 -11 8 8 3 12 -27 21 l-25 7 23 -17z"/>
<path d="M5140 2720 c0 -5 5 -10 11 -10 5 0 7 5 4 10 -3 6 -8 10 -11 10 -2 0
-4 -4 -4 -10z"/>
<path d="M6097 3749 c7 -7 15 -10 18 -7 3 3 -2 9 -12 12 -14 6 -15 5 -6 -5z"/>
<path d="M6198 3733 c7 -3 16 -2 19 1 4 3 -2 6 -13 5 -11 0 -14 -3 -6 -6z"/>
<path d="M6310 3732 c8 -5 26 -13 40 -16 17 -5 20 -4 10 2 -8 5 -26 13 -40 16
-17 5 -20 4 -10 -2z"/>
<path d="M6227 3723 c-3 -5 6 -9 20 -10 19 -1 22 1 12 8 -17 11 -26 11 -32 2z"/>
<path d="M6078 3713 c7 -3 16 -2 19 1 4 3 -2 6 -13 5 -11 0 -14 -3 -6 -6z"/>
<path d="M5970 3699 c0 -5 5 -7 10 -4 6 3 10 8 10 11 0 2 -4 4 -10 4 -5 0 -10
-5 -10 -11z"/>
<path d="M6398 3703 c6 -2 18 -2 25 0 6 3 1 5 -13 5 -14 0 -19 -2 -12 -5z"/>
<path d="M6110 3684 c-8 -3 -32 -15 -53 -25 -21 -11 -43 -16 -49 -13 -7 4 -8
2 -4 -4 4 -7 -7 -17 -28 -26 -19 -8 -33 -20 -33 -28 1 -7 -13 -43 -32 -80 -80
-159 -80 -383 -1 -539 30 -59 120 -146 177 -172 99 -45 227 -21 304 56 29 28
39 34 49 24 10 -9 11 -9 5 2 -6 11 -3 13 13 9 12 -4 22 -2 22 3 0 4 8 6 18 2
12 -4 10 1 -8 19 -14 13 -28 23 -32 21 -4 -2 -5 3 -2 11 3 9 13 16 21 16 8 0
11 5 8 10 -3 6 3 10 14 10 11 0 22 4 25 9 4 5 -3 7 -14 4 -18 -5 -19 -3 -6 23
18 36 28 88 26 137 -1 36 0 37 27 32 l28 -6 -26 13 c-26 14 -35 56 -15 70 8 5
7 8 0 8 -12 0 -28 54 -25 79 1 7 -5 31 -13 52 -20 48 -20 47 2 52 13 4 12 5
-5 6 -15 1 -25 9 -29 26 -3 14 -10 25 -15 25 -5 0 -9 6 -9 13 0 8 -9 22 -20
32 -11 10 -17 22 -14 26 3 5 1 9 -4 9 -5 0 -21 11 -36 25 -49 45 -106 68 -181
71 -38 2 -77 1 -85 -2z m-135 -84 c-3 -5 -12 -10 -18 -10 -7 0 -6 4 3 10 19
12 23 12 15 0z m505 -696 c0 -2 -12 -4 -26 -4 -14 0 -23 4 -20 9 6 8 46 4 46
-5z"/>
<path d="M6378 3683 c7 -3 16 -2 19 1 4 3 -2 6 -13 5 -11 0 -14 -3 -6 -6z"/>
<path d="M5835 3629 c-11 -16 -1 -19 13 -3 7 8 8 14 3 14 -5 0 -13 -5 -16 -11z"/>
<path d="M6420 3610 c0 -6 7 -10 15 -10 8 0 15 2 15 4 0 2 -7 6 -15 10 -8 3
-15 1 -15 -4z"/>
<path d="M6530 3571 c0 -6 14 -17 30 -26 17 -9 30 -14 30 -12 0 2 -13 13 -30
25 -16 13 -30 18 -30 13z"/>
<path d="M6560 3521 c14 -11 30 -21 35 -21 11 0 -7 14 -40 31 -13 7 -12 3 5
-10z"/>
<path d="M6600 3486 c0 -2 7 -7 16 -10 8 -3 12 -2 9 4 -6 10 -25 14 -25 6z"/>
<path d="M5845 3450 c4 -6 11 -8 16 -5 14 9 11 15 -7 15 -8 0 -12 -5 -9 -10z"/>
<path d="M6548 3443 c6 -2 18 -2 25 0 6 3 1 5 -13 5 -14 0 -19 -2 -12 -5z"/>
<path d="M6616 3438 c3 -7 17 -22 32 -32 27 -19 27 -19 -2 12 -32 35 -38 38
-30 20z"/>
<path d="M5746 3422 c-3 -4 4 -9 15 -9 23 -2 25 3 4 10 -8 4 -16 3 -19 -1z"/>
<path d="M5800 3420 c-9 -6 -10 -10 -3 -10 6 0 15 5 18 10 8 12 4 12 -15 0z"/>
<path d="M6568 3398 c5 -5 16 -8 23 -6 8 3 3 7 -10 11 -17 4 -21 3 -13 -5z"/>
<path d="M6627 3389 c7 -7 15 -10 18 -7 3 3 -2 9 -12 12 -14 6 -15 5 -6 -5z"/>
<path d="M5788 3383 c7 -3 16 -2 19 1 4 3 -2 6 -13 5 -11 0 -14 -3 -6 -6z"/>
<path d="M5750 3360 c0 -13 18 -22 24 -11 3 5 -1 11 -9 15 -8 3 -15 1 -15 -4z"/>
<path d="M5706 3351 c-3 -5 2 -15 12 -22 15 -12 16 -12 5 2 -7 9 -10 19 -6 22
3 4 4 7 0 7 -3 0 -8 -4 -11 -9z"/>
<path d="M5786 3316 c7 -19 39 -22 50 -4 5 8 2 9 -11 5 -9 -4 -24 -2 -31 4
-12 10 -13 9 -8 -5z"/>
<path d="M6597 3319 c7 -7 15 -10 18 -7 3 3 -2 9 -12 12 -14 6 -15 5 -6 -5z"/>
<path d="M5686 3287 c3 -10 9 -15 12 -12 3 3 0 11 -7 18 -10 9 -11 8 -5 -6z"/>
<path d="M5766 3278 c3 -4 9 -8 15 -8 5 0 9 4 9 8 0 5 -7 9 -15 9 -8 0 -12 -4
-9 -9z"/>
<path d="M6577 3269 c7 -7 15 -10 18 -7 3 3 -2 9 -12 12 -14 6 -15 5 -6 -5z"/>
<path d="M6608 3243 c7 -3 16 -2 19 1 4 3 -2 6 -13 5 -11 0 -14 -3 -6 -6z"/>
<path d="M6557 3219 c7 -7 15 -10 18 -7 3 3 -2 9 -12 12 -14 6 -15 5 -6 -5z"/>
<path d="M6685 3220 c3 -5 8 -10 11 -10 2 0 4 5 4 10 0 6 -5 10 -11 10 -5 0
-7 -4 -4 -10z"/>
<path d="M5730 3201 c0 -5 5 -13 10 -16 6 -3 10 -2 10 4 0 5 -4 13 -10 16 -5
3 -10 2 -10 -4z"/>
<path d="M5781 3203 c-1 -6 -8 -19 -17 -27 -8 -9 -10 -16 -4 -16 6 0 13 7 17
16 5 13 7 13 14 2 7 -10 9 -11 9 0 0 7 5 10 10 7 6 -3 10 -1 10 5 0 7 -6 10
-14 7 -8 -3 -17 -1 -20 6 -3 9 -5 9 -5 0z"/>
<path d="M6593 3165 c0 -8 4 -12 9 -9 5 3 6 10 3 15 -9 13 -12 11 -12 -6z"/>
<path d="M6650 3171 c0 -5 7 -12 16 -15 14 -5 15 -4 4 9 -14 17 -20 19 -20 6z"/>
<path d="M5810 3160 c-9 -6 -10 -10 -3 -10 6 0 15 5 18 10 8 12 4 12 -15 0z"/>
<path d="M6650 3136 c0 -2 7 -7 16 -10 8 -3 12 -2 9 4 -6 10 -25 14 -25 6z"/>
<path d="M5692 3121 c-11 -7 -11 -9 0 -14 9 -3 15 1 15 9 0 8 -1 14 -1 14 -1
0 -7 -4 -14 -9z"/>
<path d="M5780 3118 c0 -4 4 -8 9 -8 6 0 12 4 15 8 3 5 -1 9 -9 9 -8 0 -15 -4
-15 -9z"/>
<path d="M6570 3109 c0 -5 5 -7 10 -4 6 3 10 8 10 11 0 2 -4 4 -10 4 -5 0 -10
-5 -10 -11z"/>
<path d="M6545 3100 c3 -5 8 -10 11 -10 2 0 4 5 4 10 0 6 -5 10 -11 10 -5 0
-7 -4 -4 -10z"/>
<path d="M5770 3080 c-13 -8 -13 -11 -1 -22 9 -8 12 -9 7 -1 -3 6 2 16 11 22
10 6 14 10 8 11 -5 0 -17 -5 -25 -10z"/>
<path d="M5713 3065 c0 -8 4 -12 9 -9 5 3 6 10 3 15 -9 13 -12 11 -12 -6z"/>
<path d="M6610 3073 c8 -3 20 -10 27 -15 7 -6 14 -5 19 3 4 7 3 9 -4 5 -6 -3
-13 -2 -17 4 -3 5 -14 10 -23 9 -14 0 -14 -2 -2 -6z"/>
<path d="M5840 3062 c0 -5 7 -17 16 -28 15 -18 15 -18 5 2 -6 12 -7 24 -4 28
3 3 1 6 -5 6 -7 0 -12 -4 -12 -8z"/>
<path d="M5749 3048 c15 -20 36 -23 46 -8 3 6 -1 7 -10 4 -8 -4 -23 0 -33 7
-15 13 -16 12 -3 -3z"/>
<path d="M5820 3046 c0 -8 4 -17 9 -20 5 -4 7 3 4 14 -6 23 -13 26 -13 6z"/>
<path d="M6588 3048 c5 -5 16 -8 23 -6 8 3 3 7 -10 11 -17 4 -21 3 -13 -5z"/>
<path d="M6530 3015 c0 -1 11 -10 25 -19 19 -13 23 -13 19 -2 -4 12 -44 31
-44 21z"/>
<path d="M5755 2990 c-3 -5 1 -10 10 -10 9 0 13 5 10 10 -3 6 -8 10 -10 10 -2
0 -7 -4 -10 -10z"/>
<path d="M5832 2984 c-7 -8 -8 -14 -3 -14 10 0 25 19 20 25 -2 1 -10 -3 -17
-11z"/>
<path d="M6637 2979 c7 -7 15 -10 18 -7 3 3 -2 9 -12 12 -14 6 -15 5 -6 -5z"/>
<path d="M6562 2964 c9 -9 21 -15 27 -13 6 2 -2 10 -17 17 -25 11 -25 11 -10
-4z"/>
<path d="M5866 2955 c23 -17 34 -19 34 -4 0 5 -4 8 -9 4 -5 -3 -12 -1 -16 5
-3 5 -11 10 -18 10 -6 0 -2 -7 9 -15z"/>
<path d="M6620 2950 c-13 -8 -13 -10 2 -10 9 0 20 5 23 10 8 13 -5 13 -25 0z"/>
<path d="M5914 2896 c0 -20 5 -31 10 -26 5 5 16 6 25 3 10 -3 12 -2 5 4 -5 4
-17 18 -26 31 -15 23 -15 23 -14 -12z"/>
<path d="M6540 2905 c0 -5 5 -17 10 -25 5 -8 10 -10 10 -5 0 6 -5 17 -10 25
-5 8 -10 11 -10 5z"/>
<path d="M5800 2896 c0 -2 7 -6 15 -10 8 -3 15 -1 15 4 0 6 -7 10 -15 10 -8 0
-15 -2 -15 -4z"/>
<path d="M6525 2881 c6 -10 2 -12 -14 -6 -28 8 -27 1 2 -18 22 -14 23 -14 22
4 -1 10 -5 22 -10 26 -4 5 -5 2 0 -6z"/>
<path d="M6427 2859 c7 -7 15 -10 18 -7 3 3 -2 9 -12 12 -14 6 -15 5 -6 -5z"/>
<path d="M5805 2850 c3 -5 11 -10 16 -10 6 0 7 5 4 10 -3 6 -11 10 -16 10 -6
0 -7 -4 -4 -10z"/>
<path d="M5940 2856 c0 -2 9 -6 20 -9 11 -3 18 -1 14 4 -5 9 -34 13 -34 5z"/>
<path d="M5950 2819 c0 -17 3 -20 9 -10 6 9 11 10 15 2 4 -6 4 -11 -1 -11 -12
0 20 -20 32 -20 6 0 3 5 -5 10 -13 8 -13 10 2 10 10 0 25 -11 34 -25 9 -14 21
-25 26 -25 6 0 4 8 -3 17 -12 15 -12 16 4 10 44 -18 49 -16 12 4 -22 12 -51
31 -65 43 -16 13 -20 15 -11 4 17 -22 8 -23 -24 -2 -24 16 -25 15 -25 -7z"/>
<path d="M5887 2797 c3 -5 10 -6 17 -4 7 3 23 -4 37 -15 17 -14 19 -18 6 -14
-11 4 -16 2 -12 -5 4 -6 13 -8 21 -5 8 3 14 1 14 -4 0 -6 5 -10 10 -10 15 0
-22 49 -37 50 -7 0 -13 4 -13 9 0 5 -11 8 -24 7 -13 0 -22 -5 -19 -9z"/>
<path d="M6370 2778 c0 -12 3 -17 8 -12 4 5 11 12 15 15 5 3 2 9 -7 12 -12 5
-16 0 -16 -15z"/>
<path d="M6309 2778 c-11 -8 -11 -9 2 -5 9 3 22 0 28 -6 8 -8 11 -8 11 0 0 16
-25 23 -41 11z"/>
<path d="M6004 2755 c11 -8 22 -12 25 -9 6 6 -19 24 -34 24 -5 -1 -1 -7 9 -15z"/>
<path d="M6285 2760 c5 -9 1 -10 -16 -5 -24 7 -24 7 -4 -9 20 -17 20 -17 -2
-11 -12 3 -24 1 -28 -4 -3 -6 0 -8 8 -5 8 3 18 1 22 -5 9 -15 26 -14 23 1 -2
6 5 14 16 16 11 2 16 0 12 -7 -5 -7 -1 -8 9 -4 18 6 15 10 -29 34 -14 8 -17 8
-11 -1z"/>
<path d="M6130 2749 c0 -5 -4 -7 -10 -4 -5 3 -18 1 -27 -5 -17 -11 -17 -11 1
-6 10 4 24 2 30 -3 8 -7 12 -4 13 10 1 10 0 19 -3 19 -2 0 -4 -5 -4 -11z"/>
<path d="M6153 2725 c0 -14 4 -25 9 -25 5 0 7 4 4 9 -4 5 -1 11 5 13 7 2 6 8
-4 16 -12 10 -14 8 -14 -13z"/>
<path d="M6195 2740 c3 -5 8 -10 11 -10 2 0 4 5 4 10 0 6 -5 10 -11 10 -5 0
-7 -4 -4 -10z"/>
<path d="M6048 2733 c6 -2 10 -8 8 -12 -3 -4 1 -8 9 -8 11 0 12 4 4 14 -6 7
-17 13 -23 12 -7 0 -6 -2 2 -6z"/>
<path d="M1660 3730 c0 -5 5 -10 10 -10 6 0 10 5 10 10 0 6 -4 10 -10 10 -5 0
-10 -4 -10 -10z"/>
<path d="M1716 3725 c4 -8 11 -15 16 -15 6 0 5 6 -2 15 -7 8 -14 15 -16 15 -2
0 -1 -7 2 -15z"/>
<path d="M1801 3719 c5 -11 15 -19 22 -19 8 0 7 4 -3 11 -12 9 -11 10 8 6 12
-3 20 -2 17 3 -3 4 -16 10 -29 12 -22 4 -24 3 -15 -13z"/>
<path d="M1870 3730 c0 -5 5 -10 10 -10 6 0 10 5 10 10 0 6 -4 10 -10 10 -5 0
-10 -4 -10 -10z"/>
<path d="M1918 3724 c13 -9 26 -13 29 -10 4 3 0 6 -8 7 -8 1 -3 5 11 9 22 7
20 8 -15 9 -39 1 -39 1 -17 -15z"/>
<path d="M1980 3724 c-8 -10 -10 -16 -5 -11 4 4 17 0 27 -10 11 -9 18 -11 18
-5 0 7 -4 12 -9 12 -5 0 -11 7 -13 17 -3 14 -5 14 -18 -3z"/>
<path d="M2023 3718 c7 -10 16 -18 21 -18 4 0 3 6 -3 13 -6 8 -9 16 -6 19 3 2
-1 5 -9 5 -11 0 -12 -4 -3 -19z"/>
<path d="M1772 3715 c1 -10 9 -20 16 -21 7 -1 8 0 2 3 -5 2 -8 9 -5 13 3 5 0
12 -6 15 -7 5 -10 1 -7 -10z"/>
<path d="M2095 3720 c3 -5 8 -10 11 -10 2 0 4 5 4 10 0 6 -5 10 -11 10 -5 0
-7 -4 -4 -10z"/>
<path d="M2127 3719 c7 -7 15 -10 18 -7 3 3 -2 9 -12 12 -14 6 -15 5 -6 -5z"/>
<path d="M1690 3710 c-9 -6 -10 -10 -3 -10 6 0 15 5 18 10 8 12 4 12 -15 0z"/>
<path d="M2160 3710 c0 -5 5 -10 11 -10 5 0 7 5 4 10 -3 6 -8 10 -11 10 -2 0
-4 -4 -4 -10z"/>
<path d="M1876 3694 c18 -14 17 -15 -21 -10 -24 3 -34 2 -26 -3 7 -5 9 -11 5
-13 -5 -3 -3 -3 4 -2 9 3 12 -38 12 -180 l0 -184 34 -6 c42 -8 168 10 205 28
15 8 33 22 40 30 8 9 20 16 28 16 13 0 13 3 3 15 -10 12 -9 15 5 15 12 0 16 6
12 20 -3 11 -1 20 5 20 5 0 7 4 3 9 -3 6 9 8 27 7 18 -2 24 -1 13 1 -24 6 -38
18 -41 35 -7 49 -28 98 -52 124 -38 42 -58 52 -123 60 -30 4 -60 12 -68 18
-11 8 -13 8 -7 -1 11 -19 -29 -17 -44 2 -7 8 -17 15 -23 15 -6 0 -2 -7 9 -16z"/>
<path d="M1739 3692 c7 -6 9 -11 3 -13 -6 -2 -4 -9 4 -17 12 -11 13 -9 11 10
-2 12 -10 24 -18 26 -12 3 -12 2 0 -6z"/>
<path d="M2110 3690 c-9 -6 -10 -10 -3 -10 6 0 15 5 18 10 8 12 4 12 -15 0z"/>
<path d="M2038 3683 c7 -3 16 -2 19 1 4 3 -2 6 -13 5 -11 0 -14 -3 -6 -6z"/>
<path d="M2070 3679 c0 -5 5 -7 10 -4 6 3 10 8 10 11 0 2 -4 4 -10 4 -5 0 -10
-5 -10 -11z"/>
<path d="M2199 3673 c17 -35 13 -38 -16 -12 l-28 24 23 -26 c16 -18 30 -25 45
-22 14 3 18 2 10 -4 -9 -6 -7 -12 7 -21 13 -8 20 -9 20 -1 0 5 5 7 10 4 6 -4
8 -11 5 -16 -3 -5 0 -6 8 -3 17 6 59 -34 51 -48 -3 -4 0 -8 5 -8 6 0 11 1 11
3 0 13 -42 86 -56 98 -15 12 -15 10 2 -16 l19 -29 -35 24 c-19 14 -36 28 -38
33 -2 4 -8 7 -14 7 -6 0 -17 8 -25 18 -13 15 -13 15 -4 -5z"/>
<path d="M1770 3675 c0 -2 10 -10 23 -16 20 -11 21 -11 8 4 -13 16 -31 23 -31
12z"/>
<path d="M1773 3625 c0 -13 3 -22 8 -19 5 3 18 0 30 -7 12 -6 19 -7 15 -1 -3
6 0 13 6 15 10 4 9 8 -2 16 -22 16 -34 13 -20 -4 10 -12 10 -15 0 -15 -6 0
-14 9 -17 20 -7 28 -20 25 -20 -5z"/>
<path d="M1750 3630 c0 -5 5 -10 11 -10 5 0 7 5 4 10 -3 6 -8 10 -11 10 -2 0
-4 -4 -4 -10z"/>
<path d="M2165 3620 c10 -11 20 -20 23 -20 3 0 -3 9 -13 20 -10 11 -20 20 -23
20 -3 0 3 -9 13 -20z"/>
<path d="M2206 3607 c3 -10 9 -15 12 -12 3 3 0 11 -7 18 -10 9 -11 8 -5 -6z"/>
<path d="M2233 3585 c0 -8 4 -12 9 -9 5 3 6 10 3 15 -9 13 -12 11 -12 -6z"/>
<path d="M1795 3579 c3 -4 -3 -10 -12 -12 -15 -4 -15 -5 2 -5 11 0 29 3 40 7
17 7 17 8 -7 13 -15 3 -25 2 -23 -3z"/>
<path d="M2175 3580 c3 -5 10 -10 16 -10 5 0 9 5 9 10 0 6 -7 10 -16 10 -8 0
-12 -4 -9 -10z"/>
<path d="M2302 3540 c11 -22 21 -40 23 -40 6 0 -8 45 -16 56 -5 6 -6 14 -2 17
3 4 -1 7 -9 7 -13 0 -13 -6 4 -40z"/>
<path d="M2206 3561 c-3 -5 1 -11 9 -14 9 -4 12 -1 8 9 -6 16 -10 17 -17 5z"/>
<path d="M1820 3548 c0 -7 4 -19 9 -27 7 -10 9 -7 8 12 -2 26 -17 39 -17 15z"/>
<path d="M2248 3553 c7 -3 16 -2 19 1 4 3 -2 6 -13 5 -11 0 -14 -3 -6 -6z"/>
<path d="M1780 3546 c0 -2 7 -6 15 -10 8 -3 15 -1 15 4 0 6 -7 10 -15 10 -8 0
-15 -2 -15 -4z"/>
<path d="M2200 3527 c0 -8 9 -25 21 -38 18 -22 19 -22 10 -3 -6 12 -8 24 -5
26 2 3 -2 11 -11 18 -12 10 -15 10 -15 -3z"/>
<path d="M2245 3520 c2 -27 10 -33 12 -10 1 11 -2 22 -6 24 -4 3 -7 -4 -6 -14z"/>
<path d="M2277 3529 c7 -7 15 -10 18 -7 3 3 -2 9 -12 12 -14 6 -15 5 -6 -5z"/>
<path d="M2336 3494 c2 -23 0 -32 -8 -28 -7 4 -8 3 -4 -5 4 -6 12 -9 17 -6 11
8 12 62 1 69 -5 3 -7 -11 -6 -30z"/>
<path d="M1789 3497 c5 -13 18 -23 32 -24 l24 -3 -22 10 c-28 12 -30 24 -3 15
32 -10 23 2 -9 13 -28 10 -29 9 -22 -11z"/>
<path d="M1697 3485 c3 -8 9 -12 14 -9 12 7 11 11 -5 17 -10 4 -13 1 -9 -8z"/>
<path d="M1730 3460 c0 -5 5 -10 11 -10 5 0 7 5 4 10 -3 6 -8 10 -11 10 -2 0
-4 -4 -4 -10z"/>
<path d="M1820 3449 c0 -5 -4 -7 -10 -4 -5 3 -10 4 -10 1 0 -3 9 -10 19 -16
17 -8 20 -7 18 10 -1 20 -17 29 -17 9z"/>
<path d="M2270 3450 c8 -5 22 -9 30 -9 10 0 8 3 -5 9 -27 12 -43 12 -25 0z"/>
<path d="M1775 3420 c-7 -12 12 -40 27 -40 5 0 16 6 23 14 12 11 10 15 -11 25
-30 14 -31 14 -39 1z m33 -19 c3 -8 -1 -12 -9 -9 -7 2 -15 10 -17 17 -3 8 1
12 9 9 7 -2 15 -10 17 -17z"/>
<path d="M2275 3420 c26 -11 35 -12 35 -2 0 4 -12 8 -27 9 -24 1 -25 1 -8 -7z"/>
<path d="M2234 3412 c3 -5 17 -12 32 -15 30 -5 20 8 -15 18 -15 4 -21 3 -17
-3z"/>
<path d="M1716 3381 c-7 -10 22 -25 41 -22 7 1 11 -4 9 -11 -1 -7 -1 -10 1 -5
9 15 32 6 50 -19 l19 -25 2 30 c1 17 -3 31 -8 31 -6 0 -8 -4 -5 -10 3 -5 2
-10 -3 -10 -6 0 -12 7 -16 15 -3 9 -19 15 -41 15 -22 0 -34 4 -30 10 3 6 2 10
-4 10 -5 0 -12 -4 -15 -9z"/>
<path d="M2199 3379 c-11 -7 -9 -9 6 -9 16 0 17 -2 6 -9 -8 -5 -21 -6 -30 -3
-10 4 -8 -2 7 -18 12 -13 25 -20 29 -17 3 4 1 7 -5 7 -7 0 -12 5 -12 11 0 6 8
8 19 4 27 -8 34 8 12 27 -12 10 -24 13 -32 7z"/>
<path d="M1696 3345 c3 -8 9 -14 12 -13 20 2 32 -4 32 -16 0 -8 8 -13 18 -12
9 2 21 -2 25 -8 6 -7 7 -6 4 4 -2 8 -9 15 -16 15 -6 0 -15 5 -19 12 -4 6 -19
16 -34 22 -22 8 -26 7 -22 -4z"/>
<path d="M2134 3349 c-4 -7 -3 -9 4 -5 6 3 15 -2 21 -11 6 -10 11 -13 11 -7 0
20 -27 37 -36 23z"/>
<path d="M1706 3305 c-3 -8 -1 -15 4 -15 6 0 10 7 10 15 0 8 -2 15 -4 15 -2 0
-6 -7 -10 -15z"/>
<path d="M1796 3288 c-4 -18 -8 -20 -18 -10 -6 6 -21 12 -32 11 -17 0 -16 -3
7 -13 16 -7 33 -19 39 -27 8 -12 9 -12 5 1 -2 8 2 22 10 32 8 9 10 18 5 22 -5
3 -12 -4 -16 -16z"/>
<path d="M2038 3278 c11 -14 52 -31 52 -22 0 2 -15 11 -32 20 -28 14 -31 15
-20 2z"/>
<path d="M1858 3268 c14 -7 26 -8 32 -2 5 5 -4 10 -23 11 -30 1 -31 1 -9 -9z"/>
<path d="M1926 3258 c10 -14 21 -24 23 -22 3 3 -6 15 -18 27 l-24 22 19 -27z"/>
<path d="M2007 3244 c14 -14 27 -23 29 -21 6 6 -32 47 -44 47 -6 0 0 -12 15
-26z"/>
<path d="M2101 3254 c0 -11 3 -14 6 -6 3 7 2 16 -1 19 -3 4 -6 -2 -5 -13z"/>
<path d="M1810 3252 c0 -5 7 -15 15 -22 8 -7 15 -8 15 -2 0 5 -7 15 -15 22 -8
7 -15 8 -15 2z"/>
<path d="M1845 3250 c3 -4 16 -10 30 -12 13 -3 22 -2 20 2 -3 4 -16 10 -30 12
-13 3 -22 2 -20 -2z"/>
<path d="M2046 3236 c5 -12 44 -16 44 -5 0 4 -11 9 -24 11 -15 3 -23 1 -20 -6z"/>
<path d="M2126 3235 c4 -10 0 -15 -12 -16 -17 0 -17 -1 1 -8 11 -5 30 -5 41 0
12 4 25 5 29 1 4 -4 3 2 -3 13 -12 24 -65 33 -56 10z m44 -9 c0 -2 -9 -6 -20
-9 -11 -3 -18 -1 -14 4 5 9 34 13 34 5z"/>
<path d="M2195 3230 c3 -5 16 -10 28 -9 21 0 21 1 2 9 -28 12 -37 12 -30 0z"/>
<path d="M2250 3215 c0 -10 56 -55 70 -55 9 0 4 -7 -12 -18 -28 -18 -28 -18
-8 -39 18 -20 18 -22 2 -27 -14 -4 -13 -5 3 -4 43 1 47 -2 43 -26 -4 -19 -1
-24 12 -21 9 2 17 -3 17 -10 0 -8 -4 -12 -8 -10 -10 7 -71 -6 -64 -13 3 -3 15
-7 26 -9 14 -2 18 1 13 9 -4 7 2 4 13 -7 11 -11 18 -24 15 -30 -3 -5 1 -4 9 3
12 11 12 14 -1 22 -12 8 -12 10 -1 10 10 0 12 11 8 47 -3 26 -10 49 -15 51 -6
2 -9 9 -6 16 6 16 -44 78 -56 71 -5 -3 -17 6 -28 20 -18 23 -32 32 -32 20z
m110 -107 c0 -4 -4 -8 -10 -8 -5 0 -1 -9 10 -20 22 -22 26 -40 9 -40 -5 0 -8
4 -4 9 3 5 -12 23 -32 40 -21 17 -33 31 -27 31 5 0 15 -5 22 -12 9 -9 12 -9
12 0 0 7 -7 15 -16 19 -13 5 -13 7 -2 14 12 8 38 -14 38 -33z"/>
<path d="M2195 3201 c-6 -11 13 -26 22 -17 4 3 1 6 -6 6 -7 0 -9 5 -6 10 3 6
4 10 1 10 -3 0 -7 -4 -11 -9z"/>
<path d="M1763 3176 c0 -10 9 -11 33 -6 18 4 35 6 38 4 4 -2 4 -1 1 2 -9 13
-72 13 -72 0z"/>
<path d="M2218 3173 c-10 -2 -18 -8 -18 -13 0 -8 57 4 68 15 6 6 -25 5 -50 -2z"/>
<path d="M1780 3149 c0 -4 10 -15 22 -23 12 -9 17 -16 11 -16 -7 0 -14 4 -17
9 -8 13 -56 20 -62 9 -3 -5 -15 -2 -25 8 -25 22 -24 13 1 -16 11 -13 20 -17
20 -10 0 10 3 10 15 0 8 -7 12 -16 9 -21 -3 -5 1 -6 9 -3 8 3 18 1 21 -4 3 -6
15 -8 26 -5 11 3 18 9 15 13 -3 5 -1 11 5 15 15 9 12 25 -5 25 -8 0 -15 6 -15
13 0 8 -7 14 -15 14 -8 0 -15 -4 -15 -8z m10 -44 c16 -9 19 -14 9 -15 -8 0
-24 7 -35 15 -24 18 -7 19 26 0z"/>
<path d="M2256 3145 c4 -8 8 -15 10 -15 2 0 4 7 4 15 0 8 -4 15 -10 15 -5 0
-7 -7 -4 -15z"/>
<path d="M2220 3146 c0 -2 7 -7 16 -10 8 -3 12 -2 9 4 -6 10 -25 14 -25 6z"/>
<path d="M2248 3033 c7 -3 16 -2 19 1 4 3 -2 6 -13 5 -11 0 -14 -3 -6 -6z"/>
<path d="M2315 3020 c-3 -5 -1 -10 4 -10 6 0 11 5 11 10 0 6 -2 10 -4 10 -3 0
-8 -4 -11 -10z"/>
<path d="M2260 3016 c0 -2 7 -6 15 -10 8 -3 15 -1 15 4 0 6 -7 10 -15 10 -8 0
-15 -2 -15 -4z"/>
<path d="M1823 2952 c1 -14 5 -18 11 -12 7 7 6 14 -1 21 -9 9 -12 7 -10 -9z"/>
<path d="M1804 2875 c25 -19 36 -19 36 0 0 10 -10 15 -27 15 -27 -1 -27 -1 -9
-15z"/>
<path d="M2275 2850 c3 -5 11 -10 16 -10 6 0 7 5 4 10 -3 6 -11 10 -16 10 -6
0 -7 -4 -4 -10z"/>
<path d="M1823 2805 c-9 -10 -7 -14 10 -19 27 -7 28 -5 14 15 -10 13 -15 14
-24 4z"/>
<path d="M2180 2801 c19 -11 39 -20 45 -21 16 0 -28 27 -55 34 -19 5 -16 2 10
-13z"/>
<path d="M2126 2781 c16 -10 40 -15 53 -13 l25 5 -25 10 c-13 5 -37 11 -52 12
l-29 3 28 -17z"/>
<path d="M2026 2768 c3 -4 15 -8 28 -8 12 0 28 -6 35 -12 10 -11 11 -9 5 7 -6
16 -5 18 7 8 18 -18 34 -16 20 1 -13 15 -104 19 -95 4z"/>
<path d="M2760 3718 c20 -19 35 -24 25 -9 -3 5 3 11 12 13 10 3 1 6 -19 9 -36
5 -37 4 -18 -13z"/>
<path d="M2830 3733 c0 -14 41 -45 49 -37 3 3 -1 9 -9 14 -11 7 -12 10 -2 10
7 0 10 5 6 11 -4 8 -9 7 -15 -2 -8 -12 -11 -11 -19 1 -6 9 -10 10 -10 3z"/>
<path d="M2901 3731 c-11 -7 -9 -12 10 -22 21 -11 22 -10 12 3 -7 8 -10 18 -6
21 9 10 1 8 -16 -2z"/>
<path d="M2944 3715 c8 -8 23 -15 33 -15 13 0 10 4 -11 15 -36 19 -41 19 -22
0z"/>
<path d="M3061 3726 c2 -2 22 -6 44 -9 27 -4 35 -3 25 3 -14 9 -79 15 -69 6z"/>
<path d="M3000 3716 c0 -2 7 -7 16 -10 8 -3 12 -2 9 4 -6 10 -25 14 -25 6z"/>
<path d="M3040 3713 c0 -10 54 -23 62 -15 6 6 -4 11 -26 14 -20 2 -36 3 -36 1z"/>
<path d="M3157 3709 c7 -7 15 -10 18 -7 3 3 -2 9 -12 12 -14 6 -15 5 -6 -5z"/>
<path d="M2710 3706 c0 -2 8 -10 18 -17 15 -13 16 -12 3 4 -13 16 -21 21 -21
13z"/>
<path d="M2815 3700 c3 -5 8 -10 11 -10 2 0 4 5 4 10 0 6 -5 10 -11 10 -5 0
-7 -4 -4 -10z"/>
<path d="M2755 3680 c3 -5 8 -10 11 -10 2 0 4 5 4 10 0 6 -5 10 -11 10 -5 0
-7 -4 -4 -10z"/>
<path d="M2783 3680 c2 -8 12 -16 23 -17 13 -2 15 -1 4 4 -8 3 -19 11 -23 17
-6 7 -7 6 -4 -4z"/>
<path d="M3226 3681 c-3 -5 2 -15 12 -22 15 -12 16 -12 5 2 -7 9 -10 19 -6 22
3 4 4 7 0 7 -3 0 -8 -4 -11 -9z"/>
<path d="M2850 3668 c0 -4 5 -8 10 -8 6 0 10 -78 10 -214 l0 -214 40 -7 c58
-10 137 3 200 32 30 15 59 25 63 24 5 -1 6 3 2 9 -3 5 -1 10 5 10 6 0 8 5 5
10 -10 16 7 12 27 -6 14 -13 25 -15 50 -7 30 8 31 10 10 15 -12 3 -20 2 -16
-3 6 -11 -32 -6 -43 5 -11 11 -10 40 2 48 5 4 10 27 10 52 0 44 9 60 17 34 3
-9 6 -9 12 1 5 8 1 14 -13 18 -12 3 -22 14 -22 24 -2 23 -3 28 -14 52 -4 10
-5 20 -2 23 10 11 -62 75 -107 95 -39 17 -64 20 -146 18 -55 -1 -100 -6 -100
-11z"/>
<path d="M3190 3676 c0 -2 8 -10 18 -17 15 -13 16 -12 3 4 -13 16 -21 21 -21
13z"/>
<path d="M3257 3669 c7 -7 15 -10 18 -7 3 3 -2 9 -12 12 -14 6 -15 5 -6 -5z"/>
<path d="M2730 3660 c0 -5 5 -10 11 -10 5 0 7 5 4 10 -3 6 -8 10 -11 10 -2 0
-4 -4 -4 -10z"/>
<path d="M2700 3656 c0 -2 7 -9 15 -16 13 -11 14 -10 9 4 -5 14 -24 23 -24 12z"/>
<path d="M2820 3638 c0 -4 6 -8 14 -8 8 0 17 4 20 8 2 4 -4 8 -15 8 -10 0 -19
-4 -19 -8z"/>
<path d="M3285 3629 c-20 -9 -20 -9 0 -6 11 1 32 -11 49 -28 16 -16 22 -21 15
-10 -31 44 -43 53 -64 44z"/>
<path d="M2740 3620 c0 -13 49 -49 55 -40 3 5 -5 12 -17 16 -22 7 -22 7 -3 14
17 6 16 7 -8 12 -15 3 -27 2 -27 -2z"/>
<path d="M3220 3616 c0 -2 8 -10 18 -17 15 -13 16 -12 3 4 -13 16 -21 21 -21
13z"/>
<path d="M2840 3591 c0 -6 4 -13 10 -16 6 -3 7 1 4 9 -7 18 -14 21 -14 7z"/>
<path d="M2710 3565 c0 -9 6 -12 15 -9 8 4 15 7 15 9 0 2 -7 5 -15 9 -9 3 -15
0 -15 -9z"/>
<path d="M2763 3563 c2 -12 7 -26 12 -30 4 -5 5 -2 1 5 -5 7 -1 12 11 13 14 0
15 2 3 6 -8 3 -18 11 -23 17 -4 6 -6 1 -4 -11z"/>
<path d="M2815 3570 c3 -5 8 -10 11 -10 2 0 4 5 4 10 0 6 -5 10 -11 10 -5 0
-7 -4 -4 -10z"/>
<path d="M2835 3550 c-3 -5 1 -10 10 -10 9 0 13 5 10 10 -3 6 -8 10 -10 10 -2
0 -7 -4 -10 -10z"/>
<path d="M2815 3520 c19 -21 45 -27 45 -10 0 6 -9 10 -20 10 -11 0 -20 5 -20
10 0 6 -5 10 -12 10 -6 0 -3 -9 7 -20z"/>
<path d="M3327 3528 c2 -5 11 -8 18 -8 8 0 19 -15 25 -32 9 -32 10 -32 5 -3
-3 17 -6 35 -7 40 -1 6 -11 10 -24 10 -12 0 -20 -3 -17 -7z"/>
<path d="M3230 3520 c0 -5 5 -10 11 -10 5 0 7 5 4 10 -3 6 -8 10 -11 10 -2 0
-4 -4 -4 -10z"/>
<path d="M3256 3506 c-22 -10 -25 -14 -12 -19 9 -4 16 -1 16 5 0 7 5 7 15 -2
8 -6 22 -10 32 -7 14 4 13 5 -4 6 -13 0 -23 6 -23 12 0 6 9 9 20 6 11 -3 18
-1 14 4 -7 12 -22 10 -58 -5z"/>
<path d="M2815 3490 c3 -4 14 -10 25 -13 11 -3 18 -2 15 3 -3 4 -14 10 -25 13
-11 3 -18 2 -15 -3z"/>
<path d="M3330 3482 c0 -5 7 -9 15 -9 8 0 15 4 15 9 0 4 -7 8 -15 8 -8 0 -15
-4 -15 -8z"/>
<path d="M2785 3460 c-16 -7 -17 -9 -3 -9 9 -1 20 4 23 9 7 11 7 11 -20 0z"/>
<path d="M2820 3455 c-10 -12 -10 -15 2 -15 8 0 15 7 15 15 0 8 -1 15 -2 15
-2 0 -8 -7 -15 -15z"/>
<path d="M3298 3459 c20 -6 30 -14 26 -21 -4 -7 -3 -8 5 -4 19 12 -7 36 -38
35 -24 -1 -24 -1 7 -10z"/>
<path d="M3280 3436 c0 -2 7 -7 16 -10 8 -3 12 -2 9 4 -6 10 -25 14 -25 6z"/>
<path d="M3345 3430 c-3 -5 1 -13 10 -16 22 -9 29 1 11 15 -10 8 -16 9 -21 1z"/>
<path d="M2794 3422 c-6 -4 -4 -13 8 -24 10 -10 18 -14 18 -9 0 6 -5 13 -11
17 -8 4 -7 9 2 15 8 5 10 9 4 9 -5 0 -15 -4 -21 -8z"/>
<path d="M3240 3424 c0 -8 43 -43 54 -44 6 0 1 7 -10 15 -10 8 -14 15 -9 15 6
0 3 5 -5 10 -17 11 -30 13 -30 4z"/>
<path d="M2722 3411 c-11 -7 -11 -9 0 -14 9 -3 15 1 15 9 0 8 -1 14 -1 14 -1
0 -7 -4 -14 -9z"/>
<path d="M2837 3413 c-10 -9 -9 -33 1 -33 4 0 8 9 9 20 2 21 0 24 -10 13z"/>
<path d="M3315 3399 c-4 -6 -4 -13 -1 -16 3 -4 6 -1 6 5 0 6 7 9 17 5 11 -4
14 -3 9 5 -9 15 -23 15 -31 1z"/>
<path d="M2717 3373 c3 -6 16 -9 31 -7 47 9 52 20 8 19 -29 0 -42 -4 -39 -12z"/>
<path d="M3350 3376 c0 -2 7 -6 15 -10 8 -3 15 -1 15 4 0 6 -7 10 -15 10 -8 0
-15 -2 -15 -4z"/>
<path d="M2829 3362 c21 -15 -20 -25 -53 -13 -17 7 -26 7 -26 1 0 -6 5 -10 10
-10 18 0 25 -2 42 -11 11 -6 18 -5 21 4 4 9 8 9 15 -2 7 -9 12 -10 16 -2 4 6
2 11 -3 11 -6 0 -10 5 -8 11 1 6 -5 14 -13 16 -12 4 -13 3 -1 -5z"/>
<path d="M3260 3351 c0 -5 8 -15 18 -22 16 -13 16 -13 2 5 -14 18 -13 19 17
14 18 -2 30 -1 27 4 -7 11 -64 10 -64 -1z"/>
<path d="M3220 3346 c0 -2 7 -7 16 -10 8 -3 12 -2 9 4 -6 10 -25 14 -25 6z"/>
<path d="M3329 3316 c8 -9 10 -20 6 -24 -4 -4 -10 -1 -12 6 -3 6 -10 12 -16
12 -6 0 -4 -8 6 -17 15 -15 19 -16 32 -2 13 13 12 16 -8 28 -20 13 -21 13 -8
-3z"/>
<path d="M2771 3299 c13 -10 28 -19 32 -19 5 0 5 -5 1 -12 -5 -7 -3 -8 6 -3
10 6 7 12 -10 25 -17 13 -19 19 -9 22 8 3 1 5 -15 5 l-29 1 24 -19z"/>
<path d="M2824 3295 c9 -7 19 -23 21 -35 8 -39 17 -36 13 4 -3 33 -7 40 -27
41 -21 2 -22 1 -7 -10z"/>
<path d="M2763 3268 c3 -9 1 -18 -6 -21 -6 -2 -3 -6 7 -10 9 -4 15 -3 11 2 -3
5 -1 11 4 13 5 1 2 10 -7 18 -14 13 -15 12 -9 -2z"/>
<path d="M3266 3268 c5 -8 1 -9 -12 -4 -14 5 -16 4 -7 -5 6 -6 16 -8 22 -5 14
9 14 26 0 26 -5 0 -7 -5 -3 -12z"/>
<path d="M3150 3250 c-9 -6 -10 -10 -3 -10 6 0 15 5 18 10 8 12 4 12 -15 0z"/>
<path d="M2821 3233 c7 -12 15 -20 18 -17 3 2 -3 12 -13 22 -17 16 -18 16 -5
-5z"/>
<path d="M3045 3210 c-3 -6 1 -7 9 -4 18 7 21 14 7 14 -6 0 -13 -4 -16 -10z"/>
<path d="M2820 3201 l-35 -7 30 -6 c17 -3 33 -2 36 4 4 6 12 7 18 4 6 -4 11
-2 11 3 0 12 -6 12 -60 2z"/>
<path d="M2890 3200 c0 -5 5 -10 10 -10 6 0 10 5 10 10 0 6 -4 10 -10 10 -5 0
-10 -4 -10 -10z"/>
<path d="M2990 3206 c0 -2 9 -6 20 -9 11 -3 20 -1 20 4 0 5 -9 9 -20 9 -11 0
-20 -2 -20 -4z"/>
<path d="M2757 3194 c-3 -3 -3 -12 0 -20 6 -16 -18 -19 -33 -4 -6 6 -10 3 -10
-10 0 -15 5 -18 18 -14 11 3 18 0 18 -7 0 -7 3 -9 7 -6 8 8 34 -13 28 -22 -6
-10 32 -7 42 3 5 4 1 6 -7 4 -9 -2 -14 3 -12 12 2 8 0 12 -3 8 -4 -4 -17 -2
-28 4 -18 9 -18 11 -4 19 9 5 14 16 11 24 -6 16 -17 19 -27 9z"/>
<path d="M3063 3193 c-27 -5 -29 -16 -6 -34 15 -12 16 -12 10 6 l-7 20 16 -20
c16 -20 16 -20 11 3 -4 19 -3 21 8 12 8 -7 20 -8 27 -4 7 4 10 4 7 0 -4 -4 7
-21 22 -38 23 -24 27 -34 18 -44 -6 -8 -16 -11 -22 -7 -6 3 -7 1 -3 -6 6 -9
11 -9 23 0 12 10 16 10 23 -1 5 -8 13 -11 17 -6 4 5 2 11 -4 13 -7 3 -13 9
-13 14 0 21 -54 90 -66 85 -7 -3 -16 -1 -19 4 -4 6 -9 9 -13 9 -4 -1 -17 -4
-29 -6z"/>
<path d="M2798 3169 c-4 -11 4 -19 26 -27 26 -10 28 -9 14 2 -10 7 -14 17 -10
21 4 5 2 5 -5 2 -6 -4 -13 -2 -15 5 -3 8 -6 7 -10 -3z"/>
<path d="M2936 3171 c5 -5 29 -5 54 -1 l45 7 -54 2 c-33 0 -51 -3 -45 -8z"/>
<path d="M3000 3150 c20 -13 33 -13 25 0 -3 6 -14 10 -23 10 -15 0 -15 -2 -2
-10z"/>
<path d="M3094 3147 c-14 -16 6 -37 36 -37 25 0 26 12 2 33 -22 20 -24 20 -38
4z m42 -24 c-7 -7 -26 7 -26 19 0 6 6 6 15 -2 9 -7 13 -15 11 -17z"/>
<path d="M3040 3134 c0 -8 4 -13 9 -9 5 3 11 -5 13 -17 2 -16 12 -24 36 -29
17 -4 32 -3 32 2 0 9 -22 13 -47 10 -8 -1 -13 9 -13 22 0 14 -7 27 -15 31 -9
3 -15 0 -15 -10z"/>
<path d="M2835 3090 c3 -5 1 -10 -4 -10 -6 0 -11 -4 -11 -9 0 -5 9 -7 19 -4
19 5 19 33 -1 33 -5 0 -6 -4 -3 -10z"/>
<path d="M2788 3083 c7 -3 16 -2 19 1 4 3 -2 6 -13 5 -11 0 -14 -3 -6 -6z"/>
<path d="M3115 3050 c3 -5 10 -10 16 -10 5 0 9 5 9 10 0 6 -7 10 -16 10 -8 0
-12 -4 -9 -10z"/>
<path d="M3200 3050 c20 -13 33 -13 25 0 -3 6 -14 10 -23 10 -15 0 -15 -2 -2
-10z"/>
<path d="M3155 3040 c-7 -12 18 -40 37 -40 7 0 2 7 -10 16 -12 8 -20 20 -17
25 4 5 4 9 1 9 -3 0 -8 -5 -11 -10z"/>
<path d="M2811 3002 c-1 -8 -6 -10 -13 -6 -9 5 -10 4 -3 -3 15 -15 65 -25 65
-13 0 5 -9 10 -19 10 -11 0 -22 6 -24 13 -4 9 -6 9 -6 -1z"/>
<path d="M3100 3003 c0 -1 9 -7 20 -13 15 -8 20 -8 20 3 0 7 -9 13 -20 13 -11
0 -20 -1 -20 -3z"/>
<path d="M3143 2974 c-7 -7 -13 -15 -13 -18 0 -9 34 1 37 11 6 18 -11 22 -24
7z"/>
<path d="M2830 2950 c0 -6 7 -10 15 -10 8 0 15 2 15 4 0 2 -7 6 -15 10 -8 3
-15 1 -15 -4z"/>
<path d="M2792 2911 c-10 -6 -8 -10 9 -14 13 -4 26 -1 30 5 4 6 12 7 18 4 6
-4 11 -2 11 3 0 13 -49 14 -68 2z"/>
<path d="M2763 2877 c-2 -14 1 -16 12 -7 10 8 16 7 23 -7 6 -10 14 -14 19 -9
4 5 2 11 -5 13 -6 3 -10 8 -7 13 3 4 -6 10 -18 12 -17 3 -23 0 -24 -15z"/>
<path d="M2843 2870 c3 -11 0 -20 -6 -20 -7 0 -6 -4 3 -10 27 -17 4 -20 -29
-4 -18 9 -35 13 -38 10 -3 -3 3 -9 13 -12 41 -15 73 -45 76 -72 2 -18 5 -22 9
-12 4 8 2 26 -4 40 -5 14 -10 42 -9 63 0 20 -4 37 -10 37 -6 0 -8 -9 -5 -20z"/>
<path d="M2715 2860 c3 -5 13 -10 21 -10 8 0 14 5 14 10 0 6 -9 10 -21 10 -11
0 -17 -4 -14 -10z"/>
<path d="M2785 2788 c10 -32 18 -39 35 -28 13 8 12 10 -2 10 -11 0 -18 8 -18
20 0 11 -5 20 -11 20 -6 0 -8 -9 -4 -22z"/>
<path d="M2810 2794 c0 -2 9 -13 19 -23 19 -19 20 -19 18 -1 -1 15 -37 38 -37
24z"/>
<path d="M2722 2748 c2 -5 7 -9 11 -9 4 1 15 1 24 1 23 0 7 13 -17 15 -12 1
-19 -2 -18 -7z"/>
<path d="M3607 3733 c12 -2 25 -13 28 -24 4 -11 9 -18 12 -16 11 12 -19 47
-40 46 l-22 -2 22 -4z"/>
<path d="M3665 3730 c3 -5 8 -10 11 -10 2 0 4 5 4 10 0 6 -5 10 -11 10 -5 0
-7 -4 -4 -10z"/>
<path d="M3711 3733 c9 -2 21 -14 27 -26 7 -15 11 -17 11 -6 1 20 -19 39 -38
38 -14 -1 -14 -2 0 -6z"/>
<path d="M4310 3729 c0 -5 9 -9 20 -9 11 0 20 2 20 4 0 2 -9 6 -20 9 -11 3
-20 1 -20 -4z"/>
<path d="M4423 3733 c9 -2 23 -2 30 0 6 3 -1 5 -18 5 -16 0 -22 -2 -12 -5z"/>
<path d="M3688 3703 c6 -2 18 -2 25 0 6 3 1 5 -13 5 -14 0 -19 -2 -12 -5z"/>
<path d="M3785 3700 c-3 -5 -1 -10 4 -10 6 0 11 5 11 10 0 6 -2 10 -4 10 -3 0
-8 -4 -11 -10z"/>
<path d="M4367 3689 c7 -7 15 -10 18 -7 3 3 -2 9 -12 12 -14 6 -15 5 -6 -5z"/>
<path d="M3690 3683 c0 -11 38 -49 43 -42 2 2 -7 15 -20 28 -13 13 -23 20 -23
14z"/>
<path d="M4365 3660 c26 -11 55 -12 55 -2 0 4 -17 8 -37 9 -29 0 -33 -1 -18
-7z"/>
<path d="M3760 3645 c0 -9 6 -12 15 -9 8 4 15 7 15 9 0 2 -7 5 -15 9 -9 3 -15
0 -15 -9z"/>
<path d="M3672 3634 c10 -10 20 -16 22 -13 3 3 -5 11 -17 18 -21 13 -21 12 -5
-5z"/>
<path d="M4367 3629 c7 -7 15 -10 18 -7 3 3 -2 9 -12 12 -14 6 -15 5 -6 -5z"/>
<path d="M3724 3612 c12 -13 20 -13 38 -4 l23 12 -22 -6 c-13 -3 -23 -1 -23 4
0 5 -7 9 -15 9 -14 0 -14 -2 -1 -15z"/>
<path d="M3825 3600 c3 -5 8 -10 11 -10 2 0 4 5 4 10 0 6 -5 10 -11 10 -5 0
-7 -4 -4 -10z"/>
<path d="M3756 3582 c-3 -5 1 -9 9 -9 8 0 12 4 9 9 -3 4 -7 8 -9 8 -2 0 -6 -4
-9 -8z"/>
<path d="M4301 3524 c6 -7 17 -10 25 -7 20 7 18 10 -11 15 -20 4 -23 2 -14 -8z"/>
<path d="M3884 3512 c3 -5 0 -13 -6 -15 -9 -4 -10 -6 -1 -6 17 -1 25 16 12 25
-7 4 -9 3 -5 -4z"/>
<path d="M3900 3483 c0 -7 9 -22 21 -34 15 -15 19 -28 14 -49 -3 -16 -2 -31 4
-35 6 -3 11 -11 11 -17 0 -6 -6 -6 -15 2 -9 7 -17 11 -20 8 -2 -2 8 -12 24
-21 l28 -16 -1 28 c-1 19 -5 27 -14 23 -10 -3 -12 4 -8 29 5 27 1 40 -19 64
-14 17 -25 24 -25 18z"/>
<path d="M4260 3468 c24 -22 31 -23 23 -1 -5 12 -3 14 8 8 8 -5 11 -5 6 1 -5
5 -19 9 -33 9 -23 1 -23 1 -4 -17z"/>
<path d="M3876 3465 c4 -8 8 -15 10 -15 2 0 4 7 4 15 0 8 -4 15 -10 15 -5 0
-7 -7 -4 -15z"/>
<path d="M3770 3466 c0 -2 8 -10 18 -17 15 -13 16 -12 3 4 -13 16 -21 21 -21
13z"/>
<path d="M3856 3445 c4 -8 11 -15 16 -15 6 0 5 6 -2 15 -7 8 -14 15 -16 15 -2
0 -1 -7 2 -15z"/>
<path d="M3836 3429 c4 -8 -1 -9 -16 -4 -15 5 -20 4 -16 -4 11 -16 46 -13 46
4 0 8 -5 15 -11 15 -5 0 -7 -5 -3 -11z"/>
<path d="M3896 3425 c4 -8 10 -15 15 -15 4 0 6 7 3 15 -4 8 -10 15 -15 15 -4
0 -6 -7 -3 -15z"/>
<path d="M3868 3403 c6 -2 10 -9 6 -14 -3 -5 7 -9 23 -9 l28 0 -29 15 c-15 8
-31 15 -35 14 -3 0 0 -3 7 -6z"/>
<path d="M3810 3396 c0 -2 7 -6 15 -10 8 -3 15 -1 15 4 0 6 -7 10 -15 10 -8 0
-15 -2 -15 -4z"/>
<path d="M4225 3380 c3 -5 11 -10 16 -10 6 0 7 5 4 10 -3 6 -11 10 -16 10 -6
0 -7 -4 -4 -10z"/>
<path d="M3976 3361 c-7 -11 3 -41 14 -41 5 0 10 -10 12 -22 2 -15 9 -22 21
-22 10 1 17 -5 17 -17 0 -10 5 -19 10 -19 6 0 10 3 10 8 0 14 -19 37 -31 37
-7 0 -14 6 -17 14 -3 9 0 11 8 6 8 -5 5 4 -6 18 -10 15 -23 27 -27 27 -5 0 -5
5 -2 10 3 6 4 10 1 10 -3 0 -7 -4 -10 -9z"/>
<path d="M3870 3329 c0 -5 5 -7 10 -4 6 3 10 8 10 11 0 2 -4 4 -10 4 -5 0 -10
-5 -10 -11z"/>
<path d="M3905 3321 c-2 -4 1 -8 8 -8 7 0 21 -4 31 -9 13 -5 17 -4 13 3 -9 14
-46 23 -52 14z"/>
<path d="M3885 3290 c10 -11 20 -20 23 -20 3 0 -3 9 -13 20 -10 11 -20 20 -23
20 -3 0 3 -9 13 -20z"/>
<path d="M4190 3299 c0 -5 5 -7 10 -4 6 3 10 8 10 11 0 2 -4 4 -10 4 -5 0 -10
-5 -10 -11z"/>
<path d="M3947 3274 c5 -13 7 -13 15 -2 7 11 11 10 21 -2 6 -8 21 -16 32 -17
18 -2 18 -1 -2 9 -13 6 -23 15 -23 20 0 4 -11 8 -25 8 -18 0 -23 -4 -18 -16z"/>
<path d="M4120 3270 c35 -24 54 -31 30 -11 -14 11 -29 21 -35 21 -5 0 -3 -5 5
-10z"/>
<path d="M4166 3268 c3 -5 10 -6 15 -3 13 9 11 12 -6 12 -8 0 -12 -4 -9 -9z"/>
<path d="M3916 3253 c-6 -14 -5 -15 5 -6 7 7 10 15 7 18 -3 3 -9 -2 -12 -12z"/>
<path d="M3956 3228 c3 -4 16 -8 29 -8 13 0 26 -6 28 -12 4 -8 6 -7 6 3 1 12
-9 18 -33 21 -19 2 -32 0 -30 -4z"/>
<path d="M4120 3236 c0 -2 9 -6 20 -9 11 -3 18 -1 14 4 -5 9 -34 13 -34 5z"/>
<path d="M4036 3218 c3 -4 11 -5 19 -1 11 4 13 1 9 -11 -3 -9 -10 -17 -15 -17
-20 -3 -24 -5 -37 -13 -7 -4 -20 -5 -30 -1 -14 5 -14 7 -2 16 13 9 12 10 -2 6
-9 -3 -19 -1 -21 6 -2 7 -8 9 -12 5 -15 -14 38 -48 65 -42 13 3 29 6 35 7 10
2 34 36 35 49 0 4 -11 7 -24 6 -14 -1 -22 -6 -20 -10z"/>
<path d="M4085 3190 c3 -5 8 -10 11 -10 2 0 4 5 4 10 0 6 -5 10 -11 10 -5 0
-7 -4 -4 -10z"/>
<path d="M4101 3163 c4 -25 -3 -34 -20 -28 -11 3 -22 1 -26 -5 -5 -8 -14 -5
-28 7 -11 10 -17 12 -13 6 5 -9 -2 -13 -23 -13 -16 0 -32 -3 -35 -8 -2 -4 21
-7 51 -6 46 1 56 -2 60 -17 8 -28 33 -33 33 -6 0 16 -3 18 -9 9 -6 -11 -9 -9
-13 6 -4 14 -2 19 7 15 8 -2 18 5 24 16 14 25 14 31 1 31 -5 0 -9 -3 -9 -7z"/>
<path d="M4038 3153 c6 -2 18 -2 25 0 6 3 1 5 -13 5 -14 0 -19 -2 -12 -5z"/>
<path d="M4010 3101 c0 -12 32 -24 39 -14 4 4 5 7 2 6 -2 -1 -12 2 -22 8 -11
6 -19 6 -19 0z"/>
<path d="M3978 3093 c7 -3 16 -2 19 1 4 3 -2 6 -13 5 -11 0 -14 -3 -6 -6z"/>
<path d="M3963 3055 c-16 -17 -17 -29 -3 -20 6 4 19 1 28 -7 15 -12 16 -11 4
4 -8 9 -11 22 -7 28 9 15 -8 11 -22 -5z"/>
<path d="M4000 3053 c0 -14 21 -13 32 1 8 11 40 -12 33 -24 -3 -4 4 -19 15
-31 11 -13 19 -18 20 -11 0 6 -6 12 -12 12 -9 0 -8 4 2 10 13 8 12 10 -3 10
-10 0 -16 3 -13 8 2 4 -1 15 -8 24 -14 19 -66 19 -66 1z"/>
<path d="M4080 3056 c0 -2 7 -9 15 -16 13 -11 14 -10 9 4 -5 14 -24 23 -24 12z"/>
<path d="M3958 3013 c7 -3 16 -2 19 1 4 3 -2 6 -13 5 -11 0 -14 -3 -6 -6z"/>
<path d="M4030 3005 c14 -17 13 -18 -5 -12 -16 6 -15 3 5 -14 18 -15 20 -19 7
-15 -11 4 -16 2 -12 -5 4 -6 13 -8 21 -5 12 5 18 -5 16 -25 -1 -4 11 -6 25 -6
24 0 24 1 7 10 -22 12 -54 50 -48 56 2 3 18 -9 35 -25 17 -16 28 -22 24 -14
-3 8 -25 28 -48 45 -26 18 -36 22 -27 10z"/>
<path d="M4056 2855 c-3 -8 -12 -15 -21 -15 -13 0 -12 -3 3 -18 17 -19 26 -19
28 -1 1 5 2 10 4 12 1 1 3 10 5 20 4 21 -11 23 -19 2z"/>
<path d="M4094 2814 c2 -14 11 -33 21 -42 17 -16 17 -16 10 3 -4 11 -10 30
-12 43 -7 30 -22 28 -19 -4z"/>
<path d="M3970 2820 c0 -5 5 -10 11 -10 5 0 7 5 4 10 -3 6 -8 10 -11 10 -2 0
-4 -4 -4 -10z"/>
<path d="M4005 2810 c-4 -6 1 -10 9 -10 9 0 16 -5 16 -11 0 -5 -4 -7 -10 -4
-5 3 -10 2 -10 -2 0 -5 18 -8 41 -8 22 0 36 1 30 3 -6 2 -9 7 -6 12 3 4 -4 6
-15 3 -11 -3 -20 -1 -20 5 0 14 -28 23 -35 12z"/>
<path d="M4080 2748 c0 -6 6 -8 14 -5 8 3 17 2 20 -4 2 -5 3 -4 2 2 -3 15 -36
21 -36 7z"/>
<path d="M4130 2739 c0 -5 9 -9 20 -9 11 0 20 2 20 4 0 2 -9 6 -20 9 -11 3
-20 1 -20 -4z"/>
<path d="M7115 3713 c11 -3 24 -10 28 -17 6 -7 7 -6 4 4 -2 8 -14 16 -28 17
-19 1 -20 1 -4 -4z"/>
<path d="M7268 3703 c7 -3 16 -2 19 1 4 3 -2 6 -13 5 -11 0 -14 -3 -6 -6z"/>
<path d="M7305 3690 c3 -5 8 -10 11 -10 2 0 4 5 4 10 0 6 -5 10 -11 10 -5 0
-7 -4 -4 -10z"/>
<path d="M7141 3637 c4 -16 8 -207 9 -425 0 -302 3 -398 13 -404 36 -23 203
-2 274 35 17 9 38 14 46 11 8 -3 18 -1 22 5 4 7 0 8 -12 4 -10 -4 7 21 37 55
40 45 60 61 74 58 13 -4 16 -2 8 6 -11 11 5 61 17 54 9 -6 14 64 14 179 -1
222 -102 385 -267 432 -28 8 -94 15 -147 16 l-96 2 8 -28z"/>
<path d="M7010 3626 c0 -2 7 -7 16 -10 8 -3 12 -2 9 4 -6 10 -25 14 -25 6z"/>
<path d="M7085 3600 c-3 -6 1 -7 9 -4 18 7 21 14 7 14 -6 0 -13 -4 -16 -10z"/>
<path d="M7617 3599 c7 -7 15 -10 18 -7 3 3 -2 9 -12 12 -14 6 -15 5 -6 -5z"/>
<path d="M7080 3526 c0 -2 9 -6 20 -9 11 -3 18 -1 14 4 -5 9 -34 13 -34 5z"/>
<path d="M7670 3506 c0 -2 7 -7 16 -10 8 -3 12 -2 9 4 -6 10 -25 14 -25 6z"/>
<path d="M7638 3488 c5 -5 16 -8 23 -6 8 3 3 7 -10 11 -17 4 -21 3 -13 -5z"/>
<path d="M7010 3466 c0 -2 7 -7 16 -10 8 -3 12 -2 9 4 -6 10 -25 14 -25 6z"/>
<path d="M7685 3430 c3 -5 8 -10 11 -10 2 0 4 5 4 10 0 6 -5 10 -11 10 -5 0
-7 -4 -4 -10z"/>
<path d="M7008 3373 c7 -3 16 -2 19 1 4 3 -2 6 -13 5 -11 0 -14 -3 -6 -6z"/>
<path d="M7727 3309 c7 -7 15 -10 18 -7 3 3 -2 9 -12 12 -14 6 -15 5 -6 -5z"/>
<path d="M7058 3273 c7 -3 16 -2 19 1 4 3 -2 6 -13 5 -11 0 -14 -3 -6 -6z"/>
<path d="M7790 3246 c0 -2 7 -7 16 -10 8 -3 12 -2 9 4 -6 10 -25 14 -25 6z"/>
<path d="M7100 3236 c0 -2 8 -10 18 -17 15 -13 16 -12 3 4 -13 16 -21 21 -21
13z"/>
<path d="M7045 3150 c3 -5 14 -10 23 -10 15 0 15 2 2 10 -20 13 -33 13 -25 0z"/>
<path d="M7046 3058 c3 -4 11 -5 19 -1 21 7 19 12 -4 10 -11 0 -18 -5 -15 -9z"/>
<path d="M7028 3023 c7 -3 16 -2 19 1 4 3 -2 6 -13 5 -11 0 -14 -3 -6 -6z"/>
<path d="M7060 2989 c0 -5 -5 -7 -12 -3 -7 4 -8 3 -4 -4 4 -6 13 -9 21 -6 8 4
12 10 9 15 -7 12 -14 11 -14 -2z"/>
<path d="M7096 2983 c-4 -9 -4 -14 0 -10 4 4 14 1 23 -6 14 -11 15 -10 1 8 -8
11 -15 21 -16 23 -1 2 -5 -5 -8 -15z"/>
<path d="M6998 2983 c7 -3 16 -2 19 1 4 3 -2 6 -13 5 -11 0 -14 -3 -6 -6z"/>
<path d="M6980 2960 c0 -5 5 -10 11 -10 5 0 7 5 4 10 -3 6 -8 10 -11 10 -2 0
-4 -4 -4 -10z"/>
<path d="M7585 2930 c3 -5 8 -10 11 -10 2 0 4 5 4 10 0 6 -5 10 -11 10 -5 0
-7 -4 -4 -10z"/>
<path d="M7647 2929 c7 -7 15 -10 18 -7 3 3 -2 9 -12 12 -14 6 -15 5 -6 -5z"/>
<path d="M7580 2900 c-9 -6 -10 -10 -3 -10 6 0 15 5 18 10 8 12 4 12 -15 0z"/>
<path d="M6999 2898 c-7 -23 -5 -38 4 -38 7 0 6 -5 -3 -11 -12 -9 -12 -10 3
-5 10 3 21 6 24 6 2 0 -3 7 -12 16 -13 14 -14 19 -3 25 10 7 10 9 1 9 -7 0
-13 -1 -14 -2z"/>
<path d="M7670 2885 c-19 -22 -8 -25 13 -3 9 10 13 18 8 18 -5 0 -14 -7 -21
-15z"/>
<path d="M7550 2840 c0 -5 5 -10 11 -10 5 0 7 5 4 10 -3 6 -8 10 -11 10 -2 0
-4 -4 -4 -10z"/>
<path d="M7440 2830 c0 -11 69 -34 77 -26 4 3 0 6 -8 6 -8 0 -26 7 -41 14 -16
8 -28 11 -28 6z"/>
<path d="M7421 2809 c-1 -9 8 -19 18 -22 14 -3 18 -1 14 9 -3 8 -9 12 -13 9
-5 -3 -11 1 -13 7 -4 8 -6 7 -6 -3z"/>
<path d="M7075 2791 c-3 -5 -2 -12 3 -15 5 -3 9 1 9 9 0 17 -3 19 -12 6z"/>
<path d="M7009 2772 c7 -12 17 -20 22 -16 6 3 9 7 7 8 -2 1 -12 8 -22 16 -18
14 -19 14 -7 -8z"/>
<path d="M7320 2779 c0 -5 -4 -7 -10 -4 -5 3 -10 0 -10 -8 0 -21 26 -17 27 5
1 10 0 18 -3 18 -2 0 -4 -5 -4 -11z"/>
<path d="M7137 2755 c10 -13 22 -25 26 -25 13 0 -11 37 -28 44 -13 5 -13 1 2
-19z"/>
<path d="M7163 2774 c2 -3 14 -6 25 -9 11 -2 30 -8 41 -14 29 -16 33 -13 14 7
-10 10 -33 18 -51 19 -18 0 -31 -1 -29 -3z"/>
<path d="M7270 2770 c-9 -6 -10 -10 -3 -10 6 0 15 5 18 10 8 12 4 12 -15 0z"/>
<path d="M7076 2752 c-3 -4 4 -9 15 -9 23 -2 25 3 4 10 -8 4 -16 3 -19 -1z"/>
<path d="M6910 2741 c0 -6 4 -13 10 -16 6 -3 7 1 4 9 -7 18 -14 21 -14 7z"/>
<path d="M6970 2746 c0 -2 9 -6 20 -9 11 -3 18 -1 14 4 -5 9 -34 13 -34 5z"/>
<path d="M7195 2740 c27 -12 43 -12 25 0 -8 5 -22 9 -30 9 -10 0 -8 -3 5 -9z"/>
<path d="M8218 3633 c7 -3 16 -2 19 1 4 3 -2 6 -13 5 -11 0 -14 -3 -6 -6z"/>
<path d="M8188 3553 c7 -3 16 -2 19 1 4 3 -2 6 -13 5 -11 0 -14 -3 -6 -6z"/>
<path d="M8150 3347 c0 -3 12 -12 26 -22 15 -9 23 -12 20 -6 -7 11 -46 35 -46
28z"/>
<path d="M8220 3346 c0 -2 7 -7 16 -10 8 -3 12 -2 9 4 -6 10 -25 14 -25 6z"/>
<path d="M8137 3239 c7 -7 15 -10 18 -7 3 3 -2 9 -12 12 -14 6 -15 5 -6 -5z"/>
<path d="M8160 3113 c8 -3 19 -11 23 -17 6 -7 7 -6 4 4 -2 8 -12 16 -23 17
-13 2 -15 1 -4 -4z"/>
<path d="M8128 3073 c7 -3 16 -2 19 1 4 3 -2 6 -13 5 -11 0 -14 -3 -6 -6z"/>
<path d="M8153 2993 c9 -2 23 -2 30 0 6 3 -1 5 -18 5 -16 0 -22 -2 -12 -5z"/>
<path d="M8165 2870 c-16 -6 -13 -8 13 -7 17 0 32 1 32 2 0 8 -28 11 -45 5z"/>
<path d="M8228 2843 c7 -3 16 -2 19 1 4 3 -2 6 -13 5 -11 0 -14 -3 -6 -6z"/>
<path d="M8180 2801 c0 -6 4 -13 10 -16 6 -3 7 1 4 9 -7 18 -14 21 -14 7z"/>
<path d="M8638 2783 c7 -3 16 -2 19 1 4 3 -2 6 -13 5 -11 0 -14 -3 -6 -6z"/>
<path d="M8225 2770 c3 -5 13 -10 21 -10 8 0 14 5 14 10 0 6 -9 10 -21 10 -11
0 -17 -4 -14 -10z"/>
<path d="M8285 2763 c11 -3 24 -9 30 -14 5 -5 14 -9 20 -9 5 0 1 7 -9 15 -11
8 -29 14 -40 14 -20 -1 -21 -1 -1 -6z"/>
<path d="M8115 2750 c-3 -6 1 -7 9 -4 18 7 21 14 7 14 -6 0 -13 -4 -16 -10z"/>
<path d="M8430 2750 c34 -11 60 -11 35 0 -11 5 -29 8 -40 8 -16 0 -15 -2 5 -8z"/>
<path d="M8215 2740 c4 -6 11 -8 16 -5 14 9 11 15 -7 15 -8 0 -12 -5 -9 -10z"/>
<path d="M8255 2740 c3 -5 8 -10 11 -10 2 0 4 5 4 10 0 6 -5 10 -11 10 -5 0
-7 -4 -4 -10z"/>
<path d="M8368 2733 c7 -3 16 -2 19 1 4 3 -2 6 -13 5 -11 0 -14 -3 -6 -6z"/>
</g>
</svg>
